<svg width="150" height="150" fill="none" xmlns="http://www.w3.org/2000/svg"><path fill-rule="evenodd" clip-rule="evenodd" d="M149.985 76.243h-19.422l-.138-.494h-29.347c.06.146.126.311.196.494H90.11c.033-.41.055-.824.055-1.243 0-.165-.007-.329-.013-.493h10.341c.145.262.221.41.221.41l.04.084h29.449l-.153-.494h19.944c.001.165.006.328.006.493 0 .415-.009.829-.015 1.243zm-23.126-9.627l-28.148 4.963c.102.154.199.303.294.45l-8.907 1.57a15.29 15.29 0 00-.252-1.717l8.093-1.427c.106.15.213.3.314.446l28.218-4.976a22.836 22.836 0 00-.225-.462l22.538-3.974c.103.569.199 1.139.289 1.712l-21.97 3.873a15.672 15.672 0 00-.244-.458zm-4.817-7.942l-25.9 9.427c.112.136.219.271.328.406l-6.838 2.49a15.153 15.153 0 00-.55-1.648l6.19-2.253c.118.132.238.264.353.397l25.956-9.446c-.101-.136-.208-.275-.312-.413l24.053-8.755c.202.542.396 1.087.585 1.635l-23.566 8.577c-.099-.138-.196-.276-.299-.417zm-5.634-6.718L93.427 65.225c.126.116.25.235.375.354l-5.08 2.933a15.217 15.217 0 00-.827-1.527l4.531-2.616c.137.11.275.22.41.335l23.035-13.3-.361-.362 24.2-13.972c.292.498.58 1 .861 1.507l-23.814 13.748c-.116-.123-.23-.245-.349-.369zm-6.102-5.605L90.466 63c.148.087.294.18.44.274l-3.515 2.95a15.41 15.41 0 00-1.077-1.362l2.961-2.485c.131.063.262.125.395.192l.09.046 19.951-16.74a32.112 32.112 0 00-.396-.313l22.817-19.146c.375.44.745.885 1.11 1.335l-22.548 18.92-.388-.32zm-6.445-4.584L87.308 61.495c.156.064.316.132.476.201l-2.097 2.5a15.22 15.22 0 00-1.3-1.153l1.698-2.023.492.183 16.638-19.828c-.145-.087-.288-.17-.432-.254l20.046-23.891c.446.37.888.743 1.325 1.123l-19.87 23.68c-.141-.09-.282-.179-.423-.266zm-6.755-3.56L84.275 60.43c.159.046.322.094.487.145l-1.109 1.92a15.16 15.16 0 00-1.476-.915l.845-1.465c.165.036.332.074.504.117l12.89-22.326c-.155-.065-.308-.127-.461-.19l16.121-27.923c.503.286 1.002.58 1.498.877L97.559 38.41c-.151-.068-.303-.138-.453-.204zm-7.001-2.522L81.32 59.817c.163.02.33.044.5.07l-.466 1.285a15.056 15.056 0 00-1.616-.64l.3-.824c.168.007.337.016.516.03l8.826-24.25c-.162-.043-.321-.083-.481-.124L100.19 4.341a74.51 74.51 0 011.629.602l-11.24 30.88-.475-.138zm-7.157-1.455l-4.495 25.488c.16-.01.33-.016.506-.021l-.1.572a15.022 15.022 0 00-1.703-.344l.017-.096.51-.048 4.52-25.638c-.166-.018-.33-.034-.492-.05l5.826-33.044c.572.096 1.142.2 1.709.308l-5.808 32.938c-.164-.023-.33-.045-.49-.065zm-7.2 25.558c-.052-.002-.103-.001-.154-.003a5.54 5.54 0 01-.092-.003h-.02c-.16-.006-.32-.012-.482-.012-.166 0-.33.006-.495.012.165-.006.329-.012.495-.012V34.032a2.52 2.52 0 00-.33.05l-.165-.001V.004C74.67.003 74.835 0 75 0c.415 0 .828.01 1.242.016v33.92c-.18.008-.345.018-.495.03v25.822zm-3.392.217a16.15 16.15 0 00-.734.148L67.197 35.05c-.158.039-.32.082-.48.124L60.753 1.357c.568-.11 1.137-.212 1.709-.308l5.946 33.724c-.16.034-.32.068-.483.105l4.43 25.127zM61.234 37.18l8.557 23.512c.154-.057.311-.108.468-.16-.27.09-.538.188-.802.292l-.032.013c-.264.105-.525.216-.78.335.149-.07.298-.14.45-.205l-8.535-23.45c-.146.075-.293.156-.44.235L48.486 5.788c.147-.077.296-.158.442-.233l-.287-.787.014-.005c.228-.086.456-.174.686-.257l.258.709.446-.22 11.639 31.976c-.15.069-.3.136-.45.209zm-5.832 3.877l11.99 20.77.002-.001c-.216.126-.429.257-.638.393L54.84 41.578c-.122.117-.242.239-.363.36L37.694 12.869c.128-.108.255-.216.384-.322L36.85 10.42l.19-.112c.15-.09.302-.18.454-.268l1.174 2.034.068-.054c.11-.085.22-.165.329-.248l16.717 28.955c-.127.11-.255.217-.38.33zm-4.303 5.21l-.086.148 14.215 16.941a15.176 15.176 0 00-.558.498l-14.054-16.75c-.087.156-.17.312-.254.467L29.214 22.368c.099-.138.197-.278.297-.415l-3.29-3.92c.19-.163.38-.323.571-.483l3.175 3.784.306-.406L51.285 45.97c-.062.1-.125.197-.186.298zm-2.874 6.268l15.138 12.702c-.16.191-.315.387-.465.586L47.98 53.305c-.052.174-.101.347-.15.52L22.643 32.69c.08-.148.156-.3.238-.446l-5.814-4.878c.159-.192.321-.381.481-.572l5.71 4.792.257-.43 24.882 20.878c-.059.167-.117.334-.172.5zm-29.21-10.427L46.91 58.213c-.025.177-.05.354-.07.53l15.014 8.668a14.869 14.869 0 00-.356.658l-14.75-8.516c-.018.182-.033.363-.048.543L18.578 43.86c.039-.168.076-.337.116-.504l-9.024-5.21c.122-.216.243-.433.367-.648l.002-.002L18.88 42.6c.043-.166.09-.328.134-.493zM17.11 53.405l29.488 10.733c.006.179.012.357.02.533l14.122 5.14a15.183 15.183 0 00-.236.71l-13.84-5.038c.012.183.026.362.04.54L16.988 55.209c.01-.172.017-.344.028-.516L4.257 50.048l.104-.297.144-.408 12.562 4.572c.012-.17.029-.34.042-.51zm-.013 10.885l30.07 5.302c.032.177.064.35.097.519l12.802 2.257v-.002c-.042.246-.078.493-.11.743v-.001l-12.53-2.21c.039.18.078.353.117.522l-30.261-5.335c-.021-.172-.046-.342-.065-.513l-16.21-2.858.015-.092c.036-.215.07-.431.108-.646l16.007 2.822c-.015-.168-.027-.339-.04-.508zm2.11 10.217h29.225l.03.081s.08.149.232.413h11.142V75c0-.165.006-.33.013-.493-.006.164-.013.328-.013.493 0 .251.007.5.02.749h-10.72c.092.15.197.319.308.494H19.81c-.06-.165-.123-.328-.182-.494H.01C.007 75.499 0 75.25 0 75h19.367c-.055-.163-.107-.33-.16-.494zm3.856 9.15l28.067-4.949c.107.146.217.294.33.444l8.607-1.518a15.245 15.245 0 00.146.734l-8.238 1.452c.114.145.234.293.352.44L23.9 85.272l-.244-.459-22.392 3.948v-.004a66.285 66.285 0 01-.134-.73l22.165-3.91c-.078-.15-.155-.306-.233-.46zm4.517 8.078l26.367-9.597c.12.131.239.263.363.394l6.43-2.341a13.84 13.84 0 01.272.697L54.88 83.12c.128.128.259.256.39.383l-26.767 9.743c-.091-.142-.185-.283-.274-.426l-23.46 8.538-.008-.021c-.085-.226-.172-.451-.255-.679l23.33-8.49-.256-.433zm5.321 7.001l23.928-13.814c.134.113.266.227.402.338l4.625-2.67c.123.216.253.43.388.64l-4.382 2.529c.143.109.287.215.432.32L34.183 100c-.124-.117-.25-.234-.374-.353l-23.39 13.503c-.126-.214-.255-.428-.38-.644l23.217-13.404c-.12-.12-.237-.243-.356-.365zm6.489 5.501l20.42-17.135c.148.091.296.183.447.27l3.108-2.608c.16.192.324.38.493.563l-2.902 2.434c.158.084.319.164.479.244l-20.559 17.25-.43-.284-22.413 18.807c-.162-.189-.322-.38-.483-.571l22.257-18.675c-.14-.097-.278-.197-.417-.295zm6.894 4.217L62.9 88.649c.163.063.327.126.492.183l1.836-2.188c.19.161.384.318.582.47l-1.652 1.969c.174.054.345.1.518.152l-16.81 20.032c-.151-.075-.302-.149-.454-.227l-20.048 23.892-.002-.003c-.192-.157-.38-.319-.57-.478l19.937-23.76-.447-.237zm6.964 3.235L66 89.597c.166.042.334.088.498.127l.895-1.55c.215.126.433.246.656.361h-.001l-.784 1.358c.173.036.343.064.515.097l-12.9 22.342-.467-.179-16.268 28.177c-.217-.123-.435-.244-.65-.369l16.215-28.085a77.805 77.805 0 01-.463-.187zm7.412 2.581l-.433-.126 8.72-23.958c.167.024.335.053.5.074l.346-.952a15.199 15.199 0 001.185.376c-.16-.043-.32-.087-.477-.135l-.29.799c.171.017.34.027.51.04l-8.811 24.21a27.428 27.428 0 01-.483-.12l-11.38 31.265c-.234-.083-.47-.163-.704-.248l11.36-31.213-.043-.012zm6.697 1.231l4.417-25.048c.166.007.334.017.498.02l.085-.478c.244.043.49.08.74.112h-.001l-.065.369c.17-.002.337-.01.505-.016l-4.438 25.168a27.955 27.955 0 01-.497-.027l-5.888 33.391c-.246-.04-.493-.079-.738-.122l5.876-33.324c-.164-.013-.33-.029-.494-.045zm7.15-25.283c.164.005.328.013.494.013.25 0 .5-.007.747-.02v.073c.166-.022.331-.046.495-.071v25.262c-.165.015-.329.031-.495.044v34.194c.145.004.31.007.495.01v.247c-.182-.04-.351-.078-.495-.112v.132c-.249.003-.497.01-.747.01v-34.425c-.164.011-.33.02-.495.03V90.408c.165-.012.332-.021.495-.037v-.14c-.166 0-.33-.007-.495-.013zm3.623-.314l4.35 24.663c-.16.032-.322.064-.486.095l5.937 33.673.482-.116.098.556a69.46 69.46 0 01-1.712.291l-.082-.463c.16-.034.322-.068.484-.104l-5.942-33.7-.487.084-4.356-24.7c.082-.013.162-.03.243-.045.498-.054.99-.132 1.471-.234zm9.96 23.244c-.136.043-.296.093-.474.147l-8.593-23.61a14.99 14.99 0 001.645-.558l8.551 23.494a17.22 17.22 0 01-.429.268l11.319 31.098c.148-.072.297-.148.445-.222l.565 1.552c-.542.201-1.087.397-1.634.586l-.501-1.377.449-.21-11.344-31.168zm5.715-4.082c-.127.115-.252.227-.377.337l-11.92-20.644a15.13 15.13 0 001.52-.84l11.703 20.27a30.7 30.7 0 01-.366.355l16.47 28.527c.129-.105.256-.216.385-.323l1.71 2.962c-.499.293-1.001.581-1.507.862l-1.569-2.716.393-.309-16.443-28.481zm4.57-5.046c-.101.138-.204.271-.306.405L83.79 87.408c.472-.338.925-.7 1.354-1.088l13.97 16.648c-.097.143-.192.286-.29.425l20.776 24.76c.105-.131.207-.266.311-.398l3.672 4.376c-.44.375-.885.745-1.335 1.11l-3.449-4.111c.108-.129.216-.254.323-.384L98.374 104.02zm3.253-5.7c-.066.16-.136.316-.205.473l-15.62-13.106c.405-.414.785-.85 1.142-1.308l15.154 12.716c-.059.165-.118.33-.18.494l24.349 20.431.105-.191.132-.255 6.261 5.253c-.369.446-.744.887-1.123 1.324l-5.989-5.025c.083-.146.167-.289.248-.437L101.627 98.32zm28.876 9.589l-27.237-15.725c-.022.177-.048.353-.074.528l-15.707-9.069c.327-.476.628-.97.9-1.484l15.009 8.665a35.29 35.29 0 01-.041.547l27.366 15.8c.048-.165.089-.329.135-.493l9.352 5.399a69.795 69.795 0 01-.876 1.499l-8.979-5.184c.05-.161.104-.322.152-.483zm2.111-11.142L103.4 86.133c.012.178.022.357.032.538l-14.644-5.33c.24-.524.45-1.064.63-1.618l13.863 5.046c.019.18.038.361.055.545l29.337 10.678c.011-.173.018-.343.028-.515l12.96 4.717a75.25 75.25 0 01-.603 1.627l-12.491-4.546c.016-.17.034-.34.048-.508zm-.171-10.878l-29.852-5.264c.039.171.077.345.115.522l-13.03-2.297c.143-.556.255-1.125.336-1.703l12.251 2.16c.046.171.092.346.137.526l29.95 5.28c-.021-.173-.046-.341-.069-.513l16.67 2.94c-.096.57-.199 1.14-.308 1.707l-16.15-2.847c-.017-.17-.032-.343-.051-.51z" fill="#F4F1EB"/></svg>