<svg width="50" height="36" fill="none" xmlns="http://www.w3.org/2000/svg"><g opacity=".15" clip-path="url(#clip0_103_541)"><path d="M23.226 26.594a8.165 8.165 0 01-.717 3.73 8.738 8.738 0 01-2.354 3.095l-.009.006c-2.11 1.74-4.86 2.661-7.68 2.57h.018a12.412 12.412 0 01-4.991-.774 11.684 11.684 0 01-4.164-2.672l-.007-.006C.996 29.976-.19 26.68.005 23.328l-.002.032a22.872 22.872 0 012.04-10.154l-.064.16a24.165 24.165 0 014.76-6.85l-.018.018a23.785 23.785 0 015.651-4.204l.117-.057a36.386 36.386 0 014.96-2.2l.252-.08 5.055 7.935c-2.1.788-3.944 2.071-5.35 3.723l-.02.025c-1.4 1.55-2.278 3.45-2.525 5.462l-.005.048c1.1.025 2.182.267 3.174.708a7.767 7.767 0 012.586 1.854l.01.01c1.81 1.874 2.746 4.34 2.603 6.855l.001-.022-.004.003zm27.335 0a8.173 8.173 0 01-.718 3.732 8.747 8.747 0 01-2.355 3.094l-.008.006c-2.11 1.742-4.86 2.662-7.68 2.571h.018a12.406 12.406 0 01-4.991-.774 11.678 11.678 0 01-4.164-2.673l-.007-.007c-2.327-2.567-3.514-5.863-3.317-9.216l-.002.031a22.872 22.872 0 012.04-10.153l-.064.16a24.187 24.187 0 014.756-6.85l-.018.018a23.792 23.792 0 015.654-4.205l.116-.057a36.21 36.21 0 014.961-2.2l.252-.08 5.053 7.935c-2.101.79-3.945 2.074-5.35 3.726l-.021.026c-1.4 1.55-2.278 3.45-2.524 5.461l-.005.048c1.1.026 2.18.267 3.173.709a7.757 7.757 0 012.583 1.853l.01.01c1.812 1.873 2.75 4.339 2.608 6.854l.002-.022-.002.003z" fill="#434343"/></g><defs><clipPath id="clip0_103_541"><path fill="#fff" d="M0 0h50v36H0z"/></clipPath></defs></svg>