<svg width="180" height="180" fill="none" xmlns="http://www.w3.org/2000/svg"><path fill-rule="evenodd" clip-rule="evenodd" d="M179.981 91.491h-23.306c-.055-.197-.11-.4-.166-.593h-35.215c.072.176.151.374.234.593h-13.396c.04-.492.066-.989.066-1.491 0-.198-.009-.395-.015-.592h12.409c.173.315.265.493.265.493l.048.1h35.339c-.061-.201-.123-.396-.184-.593h23.932c.002.198.008.394.008.592 0 .499-.011.994-.019 1.491zm-27.75-11.552l-33.778 5.956c.122.184.239.363.353.54l-10.688 1.884a18.371 18.371 0 00-.303-2.06l9.712-1.713c.127.18.256.36.376.535l33.863-5.97c-.066-.14-.158-.33-.27-.555l27.044-4.769c.124.682.239 1.367.348 2.054l-26.365 4.648c-.11-.214-.209-.4-.292-.55zm-5.78-9.53L115.37 81.72c.135.163.263.325.394.488l-8.206 2.986a18.146 18.146 0 00-.66-1.976l7.428-2.703c.143.158.286.316.425.476l31.146-11.336c-.122-.163-.249-.33-.375-.495l28.865-10.506c.241.65.475 1.304.702 1.961l-28.28 10.293c-.118-.166-.235-.33-.358-.5zm-6.761-8.061L112.112 78.27c.152.139.301.282.45.425l-6.097 3.52a18.127 18.127 0 00-.992-1.833l5.438-3.14c.165.133.33.265.491.402l27.643-15.96c-.142-.144-.289-.289-.434-.434l29.041-16.766c.351.598.695 1.2 1.033 1.808l-28.576 16.499c-.14-.148-.276-.295-.419-.443zm-7.323-6.727L108.558 75.6c.178.104.354.217.53.329l-4.219 3.54a18.464 18.464 0 00-1.292-1.634l3.553-2.982c.158.075.314.15.474.23.037.017.073.037.109.055l23.94-20.089c-.157-.124-.315-.25-.475-.374l27.381-22.976c.45.529.894 1.063 1.332 1.602l-27.058 22.704c-.155-.128-.308-.256-.466-.384zm-7.733-5.5L104.77 73.794c.187.077.379.159.571.242l-2.517 2.999a18.285 18.285 0 00-1.559-1.383l2.037-2.427c.194.07.39.142.59.219l19.966-23.794c-.174-.104-.346-.203-.519-.305l24.056-28.67c.535.444 1.065.893 1.59 1.348L125.141 50.44c-.169-.107-.338-.214-.507-.318zm-8.107-4.273l-15.398 26.67c.192.054.387.112.585.173l-1.33 2.303a18.192 18.192 0 00-1.772-1.097l1.015-1.758c.198.044.398.09.604.14l15.467-26.79c-.185-.079-.368-.153-.552-.23l19.345-33.507c.604.344 1.203.696 1.798 1.053L117.07 46.093c-.181-.082-.363-.165-.543-.245zm-8.402-3.025L97.585 71.78c.196.024.396.052.601.084l-.56 1.54a18.047 18.047 0 00-1.939-.766l.36-.99c.2.009.405.02.618.037l10.592-29.1c-.194-.053-.385-.1-.577-.149L120.23 5.21a93 93 0 011.954.723l-13.487 37.056a50.742 50.742 0 00-.572-.165zm-8.588-1.747l-5.393 30.586c.192-.011.396-.02.607-.026l-.121.686a18.017 18.017 0 00-2.043-.412l.02-.116.613-.057 5.425-30.765c-.2-.022-.397-.042-.592-.06l6.992-39.653c.686.115 1.369.239 2.05.37l-6.969 39.525a50.77 50.77 0 00-.589-.078zm-8.64 30.67c-.061-.003-.123-.002-.184-.004l-.11-.003h-.024c-.192-.007-.385-.016-.579-.016-.2 0-.396.008-.594.016.198-.008.395-.016.594-.016V40.84a3.01 3.01 0 00-.396.06s-.07-.002-.198-.002V.005C89.604.004 89.802 0 90 0c.498 0 .994.01 1.49.019v40.703a28.52 28.52 0 00-.593.036v30.988zm-4.07.26c-.296.052-.59.112-.88.178L80.635 42.06c-.19.047-.383.098-.576.149l-7.155-40.58c.68-.132 1.364-.255 2.05-.37l7.136 40.47c-.191.04-.384.08-.58.124l5.316 30.153zM73.48 44.616L83.75 72.83c.185-.068.373-.13.561-.19-.325.107-.646.224-.963.349l-.039.015c-.316.126-.629.26-.936.403.18-.085.359-.169.542-.247L72.672 45.02c-.176.091-.352.188-.528.283L58.184 6.945c.175-.092.355-.189.53-.278l-.345-.945.017-.006c.274-.103.548-.209.823-.31l.31.852c.18-.09.357-.176.535-.263l13.966 38.37c-.18.083-.36.164-.54.25zm-6.998 4.652l14.39 24.924c-.259.15-.514.308-.764.471l-14.3-24.77c-.148.141-.292.287-.437.432L45.233 15.443c.154-.13.307-.26.462-.387l-1.474-2.552.227-.134c.182-.108.363-.216.546-.322l1.409 2.44c.027-.02.054-.043.081-.064.132-.102.263-.198.395-.298l20.06 34.746c-.152.132-.305.26-.456.396zm-5.163 6.253l-.104.177 17.06 20.33c-.23.193-.453.393-.671.597l-16.865-20.1c-.104.187-.204.374-.304.56l-25.38-30.243c.12-.165.238-.334.357-.498l-3.947-4.704c.227-.194.456-.387.685-.58l3.81 4.541c.121-.163.244-.324.366-.486l25.215 30.05c-.074.12-.15.236-.223.357zm-3.45 7.52l18.166 15.243h.001c-.192.23-.378.464-.558.704L57.576 63.966c-.063.208-.121.416-.18.623L27.17 39.228c.096-.178.188-.36.286-.535L20.48 32.84c.19-.231.385-.458.577-.687l6.852 5.75c.102-.173.206-.344.308-.516l29.858 25.054c-.07.2-.14.4-.206.6zM22.82 50.53l33.47 19.325c-.029.213-.058.425-.084.636l18.018 10.403a17.954 17.954 0 00-.428.79l-17.7-10.22c-.02.219-.04.435-.057.651L22.294 52.632c.046-.201.09-.404.139-.604l-10.83-6.253c.147-.26.293-.52.442-.778l.001-.002 10.612 6.126c.051-.199.107-.394.16-.591zm-2.29 13.556l35.386 12.88c.006.214.014.428.023.639l16.947 6.168a18.235 18.235 0 00-.283.852l-16.609-6.046c.015.22.032.435.05.65l-35.66-12.98c.011-.206.02-.413.032-.619L5.108 60.058l.125-.356c.057-.164.114-.328.173-.49l15.074 5.486c.015-.204.035-.408.051-.612zm-.015 13.062L56.6 83.51c.038.212.076.42.115.623l15.364 2.709v-.002c-.051.294-.095.591-.132.89l-15.038-2.652c.047.216.094.424.142.626l-36.314-6.403c-.025-.205-.055-.409-.077-.615l-19.451-3.43.018-.11c.042-.258.083-.517.129-.775l19.208 3.387c-.018-.203-.032-.407-.049-.61zm2.532 12.26h35.07c.022.063.036.098.036.098s.095.178.277.495h13.371V90c0-.198.008-.395.015-.592-.006.197-.015.394-.015.592 0 .302.008.6.023.899h-12.86c.11.18.236.382.369.592H23.77c-.072-.198-.146-.394-.217-.593H.01c-.002-.3-.011-.597-.011-.897H23.24c-.067-.196-.129-.395-.194-.593zm4.627 10.981l33.68-5.939c.129.175.26.352.396.532l10.328-1.82v-.002c.052.297.11.591.176.883v-.002l-9.887 1.743c.137.174.281.351.424.527l-34.111 6.015c-.098-.184-.196-.364-.294-.55l-26.87 4.738v-.006c-.055-.292-.11-.584-.161-.877l26.598-4.69c-.093-.181-.186-.368-.28-.552zm5.42 9.693l31.64-11.516c.144.157.287.315.436.472l7.717-2.809a16.78 16.78 0 01.325.837l-7.358 2.677c.153.155.31.308.468.461l-32.12 11.691c-.11-.171-.222-.339-.33-.512L5.723 121.63l-.01-.025c-.102-.272-.206-.542-.305-.815L33.4 110.601l-.306-.519zm6.386 8.401l28.712-16.577c.16.136.32.272.484.406l5.548-3.204v-.001c.15.26.305.517.466.769l-5.258 3.034c.171.131.345.259.519.386L41.02 120c-.15-.142-.301-.282-.45-.425l-28.066 16.204c-.153-.258-.307-.513-.457-.772l27.86-16.085c-.144-.145-.284-.293-.426-.439zm7.785 6.601l24.505-20.562c.178.11.355.22.536.325l3.73-3.13c.191.23.389.455.592.676l-.001-.001-3.482 2.922c.19.1.382.196.575.292l-24.67 20.7c-.172-.113-.345-.226-.516-.341L21.64 148.534c-.195-.227-.387-.456-.58-.685l26.708-22.41a44.948 44.948 0 01-.5-.355zm8.273 5.061l19.942-23.766c.196.076.392.151.59.22l2.204-2.626v-.001c.228.194.461.382.699.565v-.001l-1.983 2.363c.208.065.414.121.621.183l-20.17 24.038c-.183-.09-.364-.179-.547-.272l-24.057 28.67a.05.05 0 00-.003-.003c-.23-.189-.456-.383-.683-.574l23.924-28.512c-.178-.093-.358-.189-.537-.284zm8.357 3.882l15.306-26.51c.199.05.4.105.597.151l1.074-1.859c.258.151.52.295.786.433l-.941 1.629c.207.043.412.077.618.116l-15.48 26.812-.56-.216-19.522 33.813c-.26-.147-.522-.293-.78-.443l19.457-33.702-.555-.224zm8.895 3.097l-.52-.151 10.465-28.75c.2.03.4.064.599.089l.415-1.142a17.132 17.132 0 001.422.451 15.626 15.626 0 01-.572-.163l-.35.959c.207.021.41.033.614.05l-10.573 29.05c-.194-.047-.387-.093-.58-.143l-13.655 37.517c-.282-.099-.565-.195-.846-.298l13.633-37.455-.052-.014zm8.036 1.478l5.3-30.058c.2.008.401.02.598.024l.102-.574c.293.052.589.096.887.134l-.078.443c.204-.002.404-.013.606-.019l-5.326 30.202c-.198-.01-.397-.02-.596-.033l-7.066 40.07c-.295-.049-.59-.095-.885-.147l7.051-39.988c-.197-.016-.395-.036-.593-.054zm8.58-30.341c.197.007.394.016.593.016.3 0 .6-.009.897-.023v.087c.199-.026.397-.055.593-.086v30.316c-.197.017-.394.036-.593.052v41.032c.173.005.372.01.593.012v.297a35.945 35.945 0 01-.593-.135v.16c-.3.003-.597.011-.897.011v-41.31c-.197.014-.396.025-.594.036V108.49c.198-.015.398-.026.594-.045v-.168a14.6 14.6 0 01-.594-.016zm4.348-.376l5.219 29.596-.583.114 7.125 40.406c.191-.044.385-.091.578-.138l.118.667a92.61 92.61 0 01-2.054.35l-.098-.557c.192-.04.385-.081.58-.124l-7.13-40.441c-.192.035-.389.068-.585.102l-5.227-29.64c.099-.016.194-.037.292-.054a18.294 18.294 0 001.765-.281zm11.951 27.893c-.163.051-.354.111-.568.176l-10.312-28.332c.675-.186 1.334-.41 1.974-.67l10.262 28.194a24.47 24.47 0 01-.515.321l13.583 37.318.534-.267.678 1.862a87.85 87.85 0 01-1.962.703l-.601-1.652c.18-.084.359-.166.539-.252l-13.612-37.401zm6.858-4.899c-.152.138-.302.272-.451.404L97.81 106.51a18.09 18.09 0 001.824-1.007l14.044 24.324a34.45 34.45 0 01-.44.425l19.765 34.233c.153-.126.307-.259.461-.387l2.052 3.554c-.599.351-1.202.697-1.809 1.034l-1.882-3.259c.157-.123.315-.245.471-.371l-19.732-34.177zm5.485-6.055c-.122.165-.245.325-.367.486l-17.135-20.421a18.545 18.545 0 001.625-1.304l16.763 19.977c-.115.171-.23.342-.347.51l24.931 29.711c.125-.156.249-.319.373-.478l4.407 5.252a92.63 92.63 0 01-1.602 1.332l-4.139-4.933c.129-.155.259-.304.387-.461l-24.896-29.671zm3.903-6.84c-.079.192-.163.379-.246.568l-18.744-15.728c.487-.496.943-1.021 1.371-1.569l18.185 15.259c-.071.199-.142.397-.216.593l29.219 24.517c.041-.077.084-.152.125-.23.055-.102.105-.203.159-.305l7.513 6.304a84.932 84.932 0 01-1.348 1.588l-7.186-6.03c.099-.175.199-.347.298-.524l-29.13-24.443zm34.652 11.507l-32.685-18.87c-.026.213-.058.423-.088.633l-18.85-10.882c.393-.571.755-1.165 1.082-1.781l18.01 10.398c-.015.218-.031.436-.05.656l32.84 18.96c.057-.198.107-.394.162-.591l11.223 6.479a91.754 91.754 0 01-1.052 1.798l-10.775-6.221c.06-.193.124-.386.183-.579zm2.532-13.371l-35.057-12.76c.014.213.027.428.038.645l-17.572-6.396c.287-.629.54-1.276.756-1.941l16.635 6.054c.023.217.045.434.065.655l35.205 12.813c.014-.207.022-.412.034-.618l15.551 5.66a82.995 82.995 0 01-.723 1.954l-14.988-5.456c.018-.203.04-.408.056-.61zm-.205-13.053l-35.821-6.316c.046.205.092.413.137.626L107.61 94.62c.173-.667.307-1.35.404-2.044l14.701 2.592c.056.206.111.415.165.631l35.941 6.337c-.026-.208-.057-.41-.084-.616l20.004 3.527a86.963 86.963 0 01-.37 2.05l-19.378-3.417c-.021-.204-.039-.411-.062-.613z" fill="#F4F1EB"/></svg>