<svg width="65" height="230" fill="none" xmlns="http://www.w3.org/2000/svg"><path d="M4.395 226.568a.5.5 0 01-.094-.701l2.732-3.576a.5.5 0 01.795.607l-2.429 3.179 3.179 2.428a.5.5 0 01-.607.795l-3.576-2.732zm43.104-104.402l.245-.435-.245.435zM1.287.431a.5.5 0 11-.139.99l.14-.99zm1.904 1.294a.5.5 0 01.155-.988l-.155.988zm2.133-.66a.5.5 0 01-.172.986l.172-.985zM7.032 2.4a.5.5 0 11.192-.982l-.192.982zm2.218-.564a.5.5 0 11-.213.977l.213-.977zm1.764 1.433a.5.5 0 11.237-.971l-.237.971zm2.138-.48a.5.5 0 01-.263.965l.263-.965zM14.8 4.305a.5.5 0 11.293-.956l-.293.956zm2.26-.313a.5.5 0 01-.327.944l.328-.944zm1.477 1.61a.5.5 0 01.366-.93l-.366.93zm2.267-.131a.5.5 0 01-.41.912l.41-.912zm1.374 1.773a.5.5 0 01.46-.888l-.46.888zm2.204.085a.5.5 0 01-.516.857l.516-.857zm1.16 1.954a.5.5 0 11.58-.815l-.58.815zm2.161.415a.5.5 0 01-.648.762l.648-.762zm.795 2.122a.5.5 0 01.723-.691l-.723.69zm2.047.858a.5.5 0 11-.796.605l.796-.605zm.288 2.223a.5.5 0 11.863-.504l-.863.504zm1.79 1.335a.5.5 0 01-.92.394l.92-.394zm-.265 2.223a.5.5 0 01.96-.28l-.96.28zm1.425 1.718a.5.5 0 01-.985.173l.985-.173zm-.742 2.117a.5.5 0 01.997-.076l-.997.076zm1.067 1.965a.5.5 0 11-1-.006l1 .006zm-1.083 1.96a.5.5 0 01.997.076l-.997-.076zm.78 2.107a.5.5 0 11-.99-.134l.99.134zm-1.302 1.814a.5.5 0 11.983.18l-.983-.18zm.574 2.178a.5.5 0 01-.976-.219l.976.22zm-1.442 1.704a.5.5 0 11.968.25l-.968-.25zm.433 2.209a.5.5 0 11-.961-.276l.961.276zm-1.53 1.63a.5.5 0 01.956.296l-.956-.296zm.343 2.22a.5.5 0 11-.95-.311l.95.31zm-1.586 1.587a.5.5 0 11.947.322l-.947-.322zm.29 2.22a.5.5 0 01-.944-.33l.943.33zm-1.617 1.566a.5.5 0 11.942.337l-.942-.337zm.264 2.219a.5.5 0 11-.94-.34l.94.34zm-1.628 1.56a.5.5 0 01.94.34l-.94-.34zm.263 2.217a.5.5 0 01-.941-.339l.94.339zm-1.619 1.557a.5.5 0 01.942.335l-.942-.335zm.278 2.224a.5.5 0 11-.944-.328l.944.328zm-1.597 1.574a.5.5 0 01.948.32l-.948-.32zm.316 2.222a.5.5 0 11-.95-.31l.95.31zm-1.561 1.608a.5.5 0 01.955.297l-.955-.297zm.375 2.21a.5.5 0 11-.96-.281l.96.282zm-1.511 1.659a.5.5 0 01.964.265l-.964-.265zm.455 2.195a.5.5 0 11-.97-.245l.97.245zm-1.442 1.717a.5.5 0 01.974.223l-.974-.223zm.554 2.173a.5.5 0 01-.98-.198l.98.198zm-1.352 1.785a.5.5 0 11.985.17l-.985-.17zm.676 2.14a.5.5 0 11-.99-.138l.99.139zM19.2 76.382a.5.5 0 01.994.106l-.994-.106zm.82 2.087a.5.5 0 01-.998-.069l.998.07zm-1.098 1.955a.5.5 0 011 .029l-1-.03zm.984 2.012a.5.5 0 11-1 .014l1-.014zm-.926 2.04a.5.5 0 01.998-.058l-.998.059zm1.163 1.92a.5.5 0 01-.995.107l.995-.108zm-.727 2.113a.5.5 0 11.987-.157l-.987.157zm1.35 1.793a.5.5 0 11-.978.209l.978-.209zm-.502 2.178a.5.5 0 11.965-.26l-.965.26zm1.532 1.633a.5.5 0 11-.95.313l.95-.313zm-.258 2.235a.5.5 0 11.931-.364l-.93.364zm1.694 1.44a.5.5 0 01-.91.413l.91-.414zm-.011 2.256a.5.5 0 11.886-.462l-.886.462zm1.838 1.254a.5.5 0 01-.861.508l.861-.508zm.208 2.224a.5.5 0 11.835-.549l-.835.549zm1.99 1.116a.5.5 0 01-.807.59l.808-.59zm.393 2.158a.5.5 0 01.78-.625l-.78.625zm2.056.898a.5.5 0 01-.753.658l.753-.658zm.644 2.19a.5.5 0 01.725-.689l-.725.689zm2.079.684a.5.5 0 11-.7.715l.7-.715zm.774 2.104a.5.5 0 01.673-.74l-.673.74zm2.215.615a.5.5 0 11-.647.762l.647-.762zm.865 2.006a.5.5 0 01.624-.782l-.624.782zm2.183.425a.5.5 0 01-.6.8l.6-.8zm1.063 2.014a.5.5 0 11.579-.815l-.578.815zm2.23.324a.5.5 0 11-.556.83l.557-.83zm1.084 1.903a.5.5 0 11.537-.843l-.538.843zm2.229.209a.5.5 0 01-.52.855l.52-.855zm1.263 1.91a.5.5 0 11.5-.865l-.5.865zm2.307.174a.5.5 0 01-.513.859l.513-.859zm1.157 1.912a.501.501 0 01.554-.832l-.554.832zm2.17.306a.5.5 0 01-.598.802l.598-.802zm.96 2.035a.5.5 0 11.644-.765l-.643.765zm2.125.558a.5.5 0 11-.688.725l.688-.725zm.698 2.131a.5.5 0 01.735-.679l-.735.679zm2.043.838a.5.5 0 11-.778.627l.778-.627zm.396 2.195a.5.5 0 11.821-.57l-.82.57zm1.91 1.122a.5.5 0 11-.86.51l.86-.51zm.074 2.224a.5.5 0 11.895-.446l-.895.446zm1.73 1.391a.5.5 0 11-.925.38l.925-.38zm-.247 2.208a.5.5 0 01.95-.315l-.95.315zm1.519 1.625a.5.5 0 11-.968.249l.968-.249zm-.546 2.15a.5.5 0 11.983-.186l-.983.186zm1.295 1.814a.5.5 0 11-.992.124l.992-.124zm-.807 2.062a.5.5 0 11.998-.067l-.998.067zm1.076 1.957a.5.5 0 11-1 .011l1-.011zm-1.027 1.958a.5.5 0 11.999.039l-1-.039zm.872 2.057a.5.5 0 11-.997-.086l.997.086zm-1.208 1.854a.5.5 0 01.992.129l-.992-.129zm.689 2.123a.5.5 0 11-.986-.17l.986.17zm-1.355 1.753a.5.5 0 11.978.207l-.978-.207zm.527 2.165a.5.5 0 01-.97-.241l.97.241zm-1.477 1.658a.5.5 0 01.962.273l-.962-.273zm.386 2.19a.5.5 0 11-.953-.302l.953.302zm-1.578 1.572a.5.5 0 01.944.33l-.944-.33zm.26 2.203a.5.5 0 01-.934-.355l.935.355zm-1.663 1.492a.5.5 0 11.925.379l-.925-.379zm.15 2.208a.5.5 0 11-.916-.401l.916.401zm-1.731 1.406a.5.5 0 11.907.422l-.907-.422zm.047 2.219a.5.5 0 11-.898-.441l.898.441zm-1.788 1.323a.5.5 0 01.888.46l-.888-.46zm-.049 2.227a.5.5 0 11-.879-.477l.88.477zm-1.836 1.248a.5.5 0 01.87.493l-.87-.493zm-.134 2.225a.5.5 0 01-.86-.509l.86.509zm-1.88 1.18a.5.5 0 11.851.525l-.851-.525zm-.21 2.215a.5.5 0 11-.842-.539l.843.539zm-1.922 1.121a.499.499 0 11.833.552l-.833-.552zm-.281 2.205a.5.5 0 01-.825-.566l.825.566zm-1.957 1.057a.5.5 0 01.815.579l-.815-.579zm-.352 2.197a.5.5 0 11-.806-.591l.806.591zm-1.987.996a.5.5 0 11.797.603l-.797-.603zm-.418 2.185a.5.5 0 01-.789-.615l.789.615zm-2.018.937a.5.5 0 01.78.627l-.78-.627zm-.478 2.167a.5.5 0 11-.77-.638l.77.638zm-2.049.883a.5.5 0 01.76.649l-.76-.649zm-.542 2.153a.5.5 0 01-.751-.66l.75.66zm-2.07.818a.5.5 0 01.74.671l-.74-.671zm-.61 2.141a.501.501 0 01-.732-.683l.731.683zm-2.088.748a.5.5 0 01.721.693l-.72-.693zm-.68 2.127a.5.5 0 01-.71-.704l.71.704zm-2.107.68a.5.5 0 01.699.716l-.699-.716zm-.75 2.106a.5.5 0 11-.686-.727l.687.727zm-2.13.615a.5.5 0 11.673.739l-.674-.739zm-.815 2.073a.5.5 0 11-.661-.75l.66.75zm-2.158.543a.501.501 0 01.647.763l-.647-.763zm-.885 2.036a.5.5 0 11-.632-.775l.632.775zm-2.183.461a.5.5 0 01.615.789l-.615-.789zm-.967 1.994a.501.501 0 01-.596-.803l.596.803zm-2.204.362a.5.5 0 01.576.817l-.576-.817zm-1.067 1.942a.5.5 0 11-.553-.833l.553.833zm-2.218.237a.5.5 0 01.527.85l-.527-.85zm-1.194 1.877a.5.5 0 01-.497-.868l.497.868zm-2.213.069a.5.5 0 11.461.887l-.46-.887zm-1.363 1.779a.5.5 0 11-.416-.909l.416.909zm-2.2-.154a.5.5 0 11.361.933l-.36-.933zm-1.554 1.596a.5.5 0 01-.29-.958l.29.958zm-2.181-.482a.499.499 0 11.192.981l-.192-.981zM.227.287c.357.047.71.095 1.06.144l-.139.99a133.83 133.83 0 00-1.052-.143L.227.287zm3.12.45c.672.106 1.331.216 1.977.329l-.172.985c-.64-.112-1.294-.221-1.961-.326l.155-.988zm3.877.68c.69.135 1.366.274 2.026.418l-.213.977c-.652-.142-1.32-.28-2.005-.413l.192-.982zm4.027.88c.65.159 1.284.322 1.901.49l-.263.966a72.165 72.165 0 00-1.875-.485l.237-.971zm3.841 1.052c.677.208 1.333.422 1.968.643l-.328.944a55.583 55.583 0 00-1.933-.63l.293-.957zm3.81 1.323c.659.259 1.292.525 1.901.799l-.41.912a41.615 41.615 0 00-1.857-.78l.366-.931zm3.735 1.684c.61.315 1.19.64 1.744.973l-.516.857a30.374 30.374 0 00-1.688-.942l.46-.888zm3.485 2.112c.56.4 1.086.81 1.58 1.23l-.648.762a22.173 22.173 0 00-1.513-1.177l.58-.815zm3.098 2.661c.48.503.921 1.02 1.324 1.549l-.796.605c-.38-.499-.796-.987-1.251-1.463l.723-.691zm2.475 3.268c.35.6.658 1.213.926 1.839l-.919.394a15.61 15.61 0 00-.87-1.729l.863-.504zm1.622 3.782c.191.654.345 1.32.465 1.998l-.985.173a17.633 17.633 0 00-.44-1.89l.96-.281zm.72 4.039c.052.67.074 1.351.07 2.041l-1-.006a23.605 23.605 0 00-.067-1.959l.997-.076zm-.016 4.077c-.051.67-.124 1.346-.216 2.031l-.991-.134c.09-.667.16-1.325.21-1.973l.997.076zm-.536 4.025c-.121.66-.258 1.326-.41 1.998L32.1 32.1c.149-.66.283-1.314.402-1.96l.983.181zm-.883 3.952c-.167.648-.346 1.3-.535 1.959l-.961-.276c.186-.65.363-1.295.528-1.933l.968.25zm-1.11 3.885c-.196.637-.401 1.278-.612 1.924l-.95-.311c.209-.641.412-1.278.607-1.909l.956.296zm-1.251 3.833c-.215.63-.434 1.262-.658 1.898l-.943-.33c.223-.635.441-1.265.654-1.89l.947.322zm-1.332 3.8c-.224.625-.45 1.253-.678 1.883l-.94-.34c.227-.63.453-1.256.676-1.879l.942.337zm-1.365 3.783l-.678 1.877-.941-.339.678-1.879.94.34zm-1.355 3.769a300.98 300.98 0 00-.664 1.89l-.944-.329c.22-.634.443-1.267.666-1.896l.942.335zm-1.313 3.783c-.214.632-.425 1.267-.632 1.902l-.95-.31c.208-.639.42-1.276.634-1.912l.948.32zm-1.238 3.807a129.55 129.55 0 00-.58 1.914l-.96-.282c.19-.645.385-1.288.585-1.929l.955.297zM22.51 64.77A98.44 98.44 0 0022 66.7l-.969-.245a98.95 98.95 0 01.515-1.95l.964.265zm-.977 3.87c-.148.65-.288 1.3-.42 1.95l-.98-.198c.133-.66.275-1.318.425-1.975l.975.223zm-.787 3.905a64.218 64.218 0 00-.309 1.97l-.99-.138c.094-.669.199-1.336.314-2.002l.985.17zm-.553 3.943c-.07.66-.129 1.32-.174 1.981l-.998-.069a54.75 54.75 0 01.178-2.018l.994.106zm-.272 3.965c-.02.661-.025 1.322-.016 1.983l-1 .014c-.01-.676-.003-1.351.016-2.026l1 .029zm.056 3.965c.039.66.094 1.319.165 1.977l-.995.108a42.201 42.201 0 01-.168-2.026l.998-.06zm.425 3.934c.104.65.225 1.301.363 1.95l-.978.209a38.748 38.748 0 01-.372-2.002l.987-.157zm.826 3.867c.17.633.36 1.264.567 1.894l-.95.313a37.297 37.297 0 01-.582-1.946l.965-.26zm1.24 3.765c.236.602.49 1.203.763 1.803l-.91.414a37.43 37.43 0 01-.784-1.853l.931-.364zm1.638 3.598c.3.574.616 1.146.952 1.716l-.861.508a39.41 39.41 0 01-.977-1.762l.886-.462zm1.995 3.391c.366.556.751 1.111 1.155 1.665l-.807.59a42.266 42.266 0 01-1.183-1.706l.835-.549zm2.329 3.198c.407.509.832 1.017 1.275 1.523l-.753.658a46.826 46.826 0 01-1.303-1.556l.78-.625zm2.644 3.024c.436.459.887.917 1.354 1.373l-.7.715a53.884 53.884 0 01-1.38-1.399l.726-.689zm2.801 2.737c.498.453 1.012.905 1.542 1.355l-.647.762a60.198 60.198 0 01-1.568-1.377l.673-.74zm3.031 2.579a67.67 67.67 0 001.559 1.207l-.6.8a70.118 70.118 0 01-1.583-1.225l.624-.782zm3.2 2.406c.538.381 1.089.761 1.653 1.139l-.557.83a76.266 76.266 0 01-1.674-1.154l.579-.815zm3.273 2.199c.552.352 1.116.703 1.692 1.052l-.52.855a90.077 90.077 0 01-1.71-1.064l.538-.843zm3.455 2.097c.3.173.603.346.91.519l-.492.871c-.31-.175-.615-.349-.918-.525l.5-.865zm.91.519c.303.171.602.345.897.52l-.513.859a42.11 42.11 0 00-.876-.508l.491-.871zm2.608 1.6a37.93 37.93 0 011.616 1.138l-.598.802a35.942 35.942 0 00-1.572-1.108l.554-.832zm3.22 2.408a32.55 32.55 0 011.481 1.323l-.688.725a32.623 32.623 0 00-1.436-1.283l.643-.765zm2.914 2.775c.458.497.894 1.002 1.308 1.517l-.778.627c-.4-.497-.822-.985-1.265-1.465l.735-.679zm2.525 3.142c.386.555.749 1.119 1.088 1.692l-.86.51a27.287 27.287 0 00-1.049-1.632l.821-.57zm2.058 3.47c.301.604.58 1.216.835 1.837l-.925.38a27.278 27.278 0 00-.805-1.771l.895-.446zm1.537 3.73c.212.64.402 1.286.57 1.94l-.968.249a28.445 28.445 0 00-.55-1.874l.948-.315zm1.007 3.904c.125.661.229 1.328.313 2l-.993.124a31.49 31.49 0 00-.303-1.938l.983-.186zm.503 3.995c.044.67.07 1.345.078 2.024l-1 .011a36.062 36.062 0 00-.076-1.968l.998-.067zm.05 4.021a42.601 42.601 0 01-.127 2.018l-.997-.086c.057-.661.1-1.318.125-1.971l.999.039zm-.343 4.001a49.443 49.443 0 01-.303 1.994l-.986-.17c.113-.654.212-1.305.297-1.953l.992.129zm-.68 3.954a56.584 56.584 0 01-.451 1.958l-.97-.241c.16-.644.308-1.285.443-1.924l.978.207zm-.966 3.889a64.882 64.882 0 01-.576 1.917l-.953-.302c.2-.63.389-1.26.567-1.888l.962.273zm-1.21 3.819a73.84 73.84 0 01-.683 1.873l-.935-.355a72.26 72.26 0 00.674-1.848l.944.33zm-1.422 3.744c-.25.61-.508 1.22-.775 1.829l-.916-.401c.264-.602.52-1.205.766-1.807l.925.379zm-1.6 3.657c-.279.6-.565 1.199-.86 1.797l-.897-.441c.291-.592.575-1.185.85-1.778l.908.422zm-1.759 3.58c-.305.59-.618 1.18-.937 1.767l-.879-.477c.316-.582.626-1.165.928-1.75l.888.46zm-1.903 3.508c-.329.579-.663 1.157-1.004 1.732l-.86-.509c.337-.571.669-1.143.994-1.716l.87.493zm-2.033 3.437a119.5 119.5 0 01-1.06 1.69l-.843-.539c.356-.556.706-1.115 1.052-1.676l.851.525zm-2.15 3.363a133.19 133.19 0 01-1.114 1.653l-.825-.566c.373-.544.742-1.09 1.106-1.639l.833.552zm-2.256 3.289a131.61 131.61 0 01-1.167 1.618l-.806-.591c.39-.532.776-1.068 1.158-1.606l.815.579zm-2.357 3.217c-.401.531-.806 1.058-1.215 1.582l-.789-.615c.406-.52.808-1.043 1.206-1.57l.798.603zm-2.454 3.146a137.91 137.91 0 01-1.257 1.54l-.77-.638c.419-.505.835-1.015 1.248-1.529l.78.627zm-2.545 3.072a139.76 139.76 0 01-1.303 1.504l-.751-.66c.433-.493.864-.991 1.293-1.493l.76.649zm-2.633 2.993c-.448.495-.899.985-1.35 1.47l-.732-.683c.449-.48.896-.967 1.341-1.458l.741.671zm-2.717 2.911c-.466.484-.933.962-1.402 1.434l-.71-.704c.465-.468.93-.943 1.391-1.423l.721.693zm-2.81 2.83c-.481.471-.964.934-1.447 1.39l-.687-.727c.48-.452.958-.912 1.436-1.379l.699.716zm-2.905 2.744c-.496.453-.992.898-1.488 1.334l-.661-.75c.491-.433.983-.874 1.475-1.323l.674.739zm-3 2.64a89.66 89.66 0 01-1.531 1.273l-.632-.775a97.29 97.29 0 001.517-1.261l.647.763zm-3.099 2.523c-.53.413-1.057.814-1.582 1.205l-.596-.803a84.35 84.35 0 001.563-1.191l.615.789zm-3.21 2.384a69.84 69.84 0 01-1.643 1.125l-.553-.833a72.57 72.57 0 001.62-1.109l.576.817zm-3.334 2.212a58.09 58.09 0 01-1.721 1.027l-.497-.868a55.011 55.011 0 001.691-1.009l.527.85zm-3.473 1.983c-.617.321-1.225.618-1.824.892l-.416-.909a40.406 40.406 0 001.78-.87l.46.887zm-3.663 1.671c-.652.252-1.29.474-1.915.663l-.29-.958a25.51 25.51 0 001.844-.638l.361.933zm-3.904 1.162c-.33.065-.656.118-.976.161l-.133-.991c.3-.04.605-.09.917-.151l.192.981z" fill="#C8BEB2"/></svg>