<svg width="122" height="436" fill="none" xmlns="http://www.w3.org/2000/svg"><path d="M54.5 266l-.457.202.457-.202zM121.479 2.143a.5.5 0 00-.336-.622L116.833.23a.5.5 0 00-.287.958l3.832 1.147-1.148 3.832a.5.5 0 10.958.287l1.291-4.31zM1.391 434.176a.5.5 0 00.179-.984l-.18.984zm2.154-.645a.5.5 0 10-.16.987l.16-.987zm1.853 1.29a.5.5 0 00.14-.99l-.14.99zm2.122-.733a.5.5 0 10-.119.993l.119-.993zm1.908 1.214a.5.5 0 00.098-.996l-.098.996zm2.088-.82a.5.5 0 10-.078.997l.078-.997zm1.95 1.133a.5.5 0 10.056-.998l-.057.998zm2.06-.905a.5.5 0 10-.036.999l.035-.999zm1.99 1.05a.5.5 0 00.014-1l-.014 1zm2.024-.994a.5.5 0 00.008 1l-.008-1zm2.033.962a.5.5 0 10-.03-.999l.03.999zm1.977-1.082a.5.5 0 10.052.998l-.052-.998zm2.075.868a.5.5 0 00-.076-.997l.076.997zm1.922-1.174a.5.5 0 00.1.995l-.1-.995zm2.117.767a.5.5 0 10-.125-.992l.125.992zm1.86-1.267a.5.5 0 10.15.989l-.15-.989zm2.154.658a.5.5 0 10-.176-.984l.176.984zm1.791-1.362a.5.5 0 10.202.979l-.202-.979zm2.185.541a.5.5 0 00-.23-.974l.23.974zm1.713-1.461a.5.5 0 10.258.966l-.258-.966zm2.213.414a.5.5 0 00-.286-.958l.286.958zm1.622-1.56a.5.5 0 10.316.949l-.316-.949zm2.234.277a.5.5 0 00-.345-.938l.345.938zm1.52-1.66a.5.5 0 10.377.926l-.376-.926zm2.247.13a.5.5 0 10-.407-.913l.407.913zm1.405-1.759a.5.5 0 00.439.899l-.439-.899zm2.25-.026a.5.5 0 10-.47-.882l.47.882zm1.275-1.854a.5.5 0 00.502.865l-.502-.865zm2.245-.193a.5.5 0 10-.534-.845l.535.845zm1.129-1.942a.5.5 0 10.566.824l-.566-.824zm2.223-.363a.5.5 0 00-.598-.801l.598.801zm.977-2.026a.5.5 0 10.63.777l-.63-.777zm2.184-.534a.5.5 0 00-.66-.751l.66.751zm.821-2.106a.5.5 0 10.69.724l-.69-.724zm2.126-.699a.5.5 0 00-.718-.697l.718.697zm.646-2.161a.5.5 0 10.745.666l-.745-.666zm2.072-.878a.5.5 0 00-.772-.636l.772.636zm.462-2.195a.5.5 0 00.796.606l-.796-.606zm2.007-1.054a.5.5 0 10-.82-.573l.82.573zm.284-2.216a.501.501 0 00.84.542l-.84-.542zm1.91-1.189a.5.5 0 10-.86-.509l.86.509zm.137-2.265a.5.5 0 10.879.478l-.88-.478zm1.805-1.302a.5.5 0 10-.895-.446l.895.446zm-.031-2.257a.501.501 0 00.91.415l-.91-.415zm1.727-1.462a.5.5 0 00-.923-.384l.923.384zm-.196-2.218a.5.5 0 00.936.354l-.936-.354zm1.628-1.568a.5.5 0 10-.946-.324l.946.324zm-.32-2.244a.5.5 0 00.955.296l-.955-.296zm1.518-1.621a.5.5 0 10-.964-.268l.964.268zm-.452-2.212a.5.5 0 00.97.241l-.97-.241zm1.441-1.773a.5.5 0 10-.977-.214l.977.214zm-.58-2.132a.499.499 0 10.981.19l-.981-.19zm1.341-1.802a.5.5 0 00-.986-.166l.986.166zm-.672-2.182a.5.5 0 10.99.142l-.99-.142zm1.254-1.85a.501.501 0 00-.993-.12l.993.12zm-.776-2.088a.5.5 0 10.995.099l-.995-.099zm1.176-1.933a.5.5 0 00-.997-.078l.997.078zm-.857-2.134a.5.5 0 10.999.058l-.999-.058zm1.095-1.91a.5.5 0 10-1-.039l1 .039zm-.938-2.028a.5.5 0 001 .022l-1-.022zm1.026-2.023a.5.5 0 10-1-.004l1 .004zm-1.01-2.063a.5.5 0 101-.013l-1 .013zm.96-1.981a.5.5 0 00-1 .028l1-.028zm-1.073-1.958a.5.5 0 001-.044l-1 .044zm.895-2.081a.5.5 0 00-.998.059l.998-.059zm-1.134-1.998a.5.5 0 10.997-.073l-.997.073zm.838-2.054a.5.5 0 10-.996.086l.996-.086zm-1.18-1.882a.5.5 0 00.995-.099l-.995.099zm.781-2.111a.5.5 0 00-.994.112l.994-.112zm-1.235-1.917a.5.5 0 10.992-.125l-.992.125zm.724-2.166a.5.5 0 00-.99.136l.99-.136zm-1.268-1.801a.5.5 0 10.99-.147l-.99.147zm.685-2.121a.5.5 0 10-.988.157l.988-.157zm-1.317-1.834a.5.5 0 10.986-.168l-.986.168zm.629-2.196a.5.5 0 00-.984.178l.984-.178zm-1.359-1.83a.5.5 0 00.983-.188l-.983.188zm.603-2.119a.5.5 0 10-.98.198l.98-.198zm-1.38-1.747a.5.5 0 00.978-.206l-.979.206zm.552-2.184a.5.5 0 10-.977.215l.977-.215zm-1.425-1.778a.501.501 0 00.975-.223l-.975.223zm.501-2.249a.5.5 0 10-.973.232l.973-.232zm-1.435-1.676a.5.5 0 10.97-.24l-.97.24zm.488-2.162a.5.5 0 10-.969.247l.97-.247zm-1.47-1.69a.5.5 0 00.967-.254l-.967.254zm.442-2.219a.5.5 0 00-.965.262l.965-.262zm-1.51-1.717a.5.5 0 00.964-.269l-.963.269zm.402-2.255a.5.5 0 10-.961.275l.961-.275zm-1.506-1.603a.5.5 0 10.96-.282l-.96.282zm.393-2.185a.501.501 0 00-.957.288l.957-.288zm-1.54-1.627a.5.5 0 00.955-.295l-.956.295zm.35-2.235a.5.5 0 10-.953.3l.954-.3zm-1.575-1.653a.5.5 0 10.952-.307l-.952.307zm.31-2.285a.5.5 0 00-.951.312l.95-.312zm-1.568-1.548a.5.5 0 00.949-.317l-.949.317zm.315-2.192a.5.5 0 00-.946.323l.946-.323zm-1.595-1.564a.5.5 0 00.945-.327l-.945.327zm.277-2.235a.5.5 0 00-.943.332l.943-.332zm-1.626-1.587a.5.5 0 00.94-.338l-.94.338zm.238-2.28a.5.5 0 00-.94.343l.94-.343zm-1.644-1.572a.5.5 0 10.938-.348l-.938.348zm.25-2.188a.5.5 0 10-.935.352l.936-.352zm-1.636-1.499a.5.5 0 10.934-.357l-.934.357zm.216-2.227a.501.501 0 00-.933.361l.933-.361zm-1.666-1.52a.5.5 0 10.931-.365l-.93.365zm.182-2.265a.5.5 0 00-.93.37l.93-.37zm-1.694-1.541a.5.5 0 10.928-.374l-.928.374zm.154-2.284a.5.5 0 10-.926.377l.926-.377zm-1.668-1.435a.5.5 0 00.924-.381l-.924.381zm.166-2.21a.5.5 0 00-.923.385l.923-.385zm-1.694-1.453a.5.5 0 00.922-.389l-.922.389zm.135-2.244a.5.5 0 00-.92.392l.92-.392zm-1.72-1.473a.5.5 0 00.92-.396l-.92.396zm.104-2.278a.5.5 0 00-.917.399l.917-.399zm-1.745-1.493a.5.5 0 10.916-.402l-.916.402zm.085-2.286a.5.5 0 00-.915.402l.915-.402zm-1.726-1.458a.5.5 0 10.917-.397l-.917.397zm.123-2.246a.5.5 0 10-.92.393l.92-.393zm-1.702-1.453a.5.5 0 10.922-.388l-.922.388zm.156-2.222a.5.5 0 10-.924.383l.924-.383zm-1.677-1.449a.5.5 0 10.926-.378l-.926.378zm.189-2.197a.5.5 0 10-.928.373l.928-.373zm-1.653-1.445a.5.5 0 10.93-.368l-.93.368zm.198-2.233a.5.5 0 00-.932.363l.932-.363zm-1.662-1.527a.5.5 0 10.934-.358l-.934.358zm.221-2.235a.5.5 0 00-.936.352l.936-.352zm-1.635-1.523a.5.5 0 10.938-.346l-.938.346zm.256-2.208a.499.499 0 10-.94.341l.94-.341zm-1.608-1.518a.5.5 0 10.941-.336l-.942.336zm.29-2.182a.5.5 0 10-.944.33l.944-.33zm-1.59-1.533a.5.5 0 00.946-.324l-.946.324zm.295-2.242a.5.5 0 10-.948.319l.948-.319zm-1.585-1.597a.5.5 0 10.95-.312l-.95.312zm.33-2.213a.5.5 0 10-.951.307l.952-.307zm-1.556-1.591a.5.5 0 00.954-.301l-.954.301zm.367-2.185a.5.5 0 10-.956.295l.956-.295zm-1.53-1.587a.5.5 0 10.958-.288l-.957.288zm.4-2.163a.5.5 0 10-.96.282l.96-.282zm-1.526-1.67a.5.5 0 10.961-.275l-.96.275zm.414-2.211a.5.5 0 10-.963.269l.963-.269zm-1.496-1.664a.5.5 0 00.965-.263l-.965.263zm.45-2.18a.5.5 0 00-.966.255l.967-.255zm-1.465-1.659a.5.5 0 00.968-.249l-.968.249zm.488-2.148a.5.5 0 10-.97.242l.97-.242zm-1.443-1.681a.5.5 0 10.972-.235l-.972.235zm.505-2.201a.5.5 0 10-.974.228l.973-.228zm-1.426-1.735a.5.5 0 00.976-.221l-.976.221zm.543-2.167a.5.5 0 10-.977.213l.977-.213zm-1.393-1.73a.5.5 0 00.978-.206l-.978.206zm.58-2.132a.5.5 0 10-.98.198l.98-.198zm-1.361-1.726a.5.5 0 00.982-.19l-.982.19zm.606-2.163a.5.5 0 10-.983.183l.983-.183zm-1.345-1.805a.5.5 0 00.985-.175l-.985.175zm.643-2.144a.5.5 0 00-.986.167l.986-.167zm-1.31-1.799a.5.5 0 10.986-.159l-.987.159zm.68-2.106a.5.5 0 10-.988.151l.989-.151zm-1.276-1.794a.5.5 0 10.99-.143l-.99.143zm.713-2.115a.5.5 0 00-.99.134l.99-.134zm-1.253-1.871a.501.501 0 00.992-.125l-.992.125zm.749-2.11a.5.5 0 00-.993.117l.993-.117zm-1.218-1.865a.5.5 0 10.994-.108l-.994.108zm.789-2.07a.5.5 0 00-.995.1l.995-.1zm-1.183-1.859a.5.5 0 10.996-.091l-.995.091zm.825-2.075a.5.5 0 00-.997.081l.997-.081zm-1.153-1.933a.5.5 0 00.997-.072l-.997.072zm.862-2.065a.5.5 0 00-.998.063l.998-.063zm-1.114-1.926a.5.5 0 00.998-.054l-.998.054zm.901-2.022a.5.5 0 10-.999.044l1-.044zm-1.077-1.92a.5.5 0 001-.035l-1 .035zm.94-2.042a.5.5 0 00-1 .025l1-.025zm-1.04-1.99a.5.5 0 10.999-.015l-1 .015zm.978-2.007a.5.5 0 10-1 .005l1-.005zm-1-1.983a.5.5 0 001 .005l-1-.005zm1.019-1.961a.5.5 0 10-1-.014l1 .014zm-.961-1.999a.5.5 0 001 .025l-1-.025zm1.06-1.985a.5.5 0 10-1-.035l1 .035zm-.919-2.041a.5.5 0 101 .045l-1-.045zm1.1-1.936a.5.5 0 10-.998-.056l.998.056zm-.877-2.034a.5.5 0 10.998.067l-.998-.067zm1.138-1.887a.5.5 0 00-.997-.077l.997.077zm-.83-2.093a.5.5 0 10.996.088l-.996-.088zm1.182-1.903a.5.5 0 10-.995-.099l.995.099zm-.787-2.086a.5.5 0 10.994.11l-.994-.11zm1.221-1.851a.5.5 0 00-.993-.121l.993.121zm-.744-2.078a.501.501 0 00.99.132l-.99-.132zm1.265-1.852a.5.5 0 10-.99-.142l.99.142zm-.692-2.132a.5.5 0 10.988.154l-.988-.154zm1.304-1.808a.5.5 0 00-.986-.165l.986.165zm-.648-2.123a.5.5 0 00.985.176l-.985-.176zm1.341-1.754a.5.5 0 10-.982-.187l.982.187zm-.594-2.163a.5.5 0 10.98.199l-.98-.199zM33 117.848a.5.5 0 10-.978-.209l.978.209zm-.547-2.16a.5.5 0 10.975.221l-.975-.221zm1.423-1.702a.5.5 0 10-.973-.233l.973.233zm-.502-2.151a.5.5 0 10.97.244l-.97-.244zm1.47-1.699a.5.5 0 00-.966-.256l.967.256zm-.442-2.193a.5.5 0 10.964.267l-.964-.267zm1.504-1.642a.5.5 0 00-.96-.278l.96.278zm-.397-2.181a.5.5 0 10.957.29l-.957-.29zm1.541-1.599a.5.5 0 10-.954-.301l.954.301zm-.336-2.217a.5.5 0 10.95.312l-.95-.312zm1.584-1.575a.5.5 0 00-.946-.324l.946.324zm-.29-2.205a.5.5 0 00.942.336l-.942-.336zm1.614-1.516a.5.5 0 10-.938-.346l.938.346zm-.232-2.222a.5.5 0 00.934.357l-.934-.358zm1.66-1.502a.5.5 0 00-.93-.37l.93.37zm-.181-2.222a.5.5 0 10.924.38l-.924-.38zm1.687-1.441a.5.5 0 00-.92-.392l.92.392zm-.131-2.216a.5.5 0 10.915.403l-.915-.403zm1.731-1.423a.5.5 0 10-.91-.414l.91.414zm-.07-2.232a.5.5 0 00.905.425l-.905-.425zm1.756-1.362a.5.5 0 10-.9-.436l.9.436zm-.026-2.215a.5.5 0 10.895.447l-.895-.447zm1.797-1.335a.5.5 0 00-.89-.457l.89.457zm.039-2.235a.5.5 0 00.883.468l-.883-.468zm1.822-1.28a.5.5 0 10-.878-.478l.878.479zm.082-2.215a.5.5 0 10.872.489l-.872-.49zm1.854-1.24a.5.5 0 00-.866-.499l.866.5zm.147-2.232a.5.5 0 00.86.51l-.86-.51zm1.883-1.192a.5.5 0 10-.855-.52l.855.52zm.189-2.212a.5.5 0 00.848.53l-.848-.53zm1.908-1.144a.5.5 0 00-.841-.54l.841.54zm.253-2.225a.5.5 0 00.836.55l-.836-.55zm1.938-1.103a.5.5 0 10-.828-.56l.828.56zm.294-2.202a.5.5 0 10.823.57l-.822-.57zm1.958-1.05a.5.5 0 10-.815-.58l.816.58zm.358-2.211a.5.5 0 10.809.588l-.809-.588zm1.988-1.013a.5.5 0 10-.802-.597l.802.597zm.397-2.185a.5.5 0 10.794.607l-.794-.607zm2.004-.959a.5.5 0 10-.788-.616l.788.616zm.46-2.192a.5.5 0 00.78.625l-.78-.625zm2.031-.92a.5.5 0 10-.773-.634l.773.634zm.496-2.165a.5.5 0 10.766.643l-.766-.643zm2.047-.867a.5.5 0 00-.76-.652l.76.652zm.558-2.17a.5.5 0 00.752.66l-.752-.66zM72.391 41a.5.5 0 00-.744-.668l.744.668zm.591-2.14a.5.5 0 00.737.677l-.737-.676zm2.087-.778a.5.5 0 00-.729-.684l.73.684zm.654-2.141a.5.5 0 00.721.692l-.721-.692zm2.103-.732a.5.5 0 00-.713-.7l.713.7zm.683-2.109a.5.5 0 00.706.708l-.706-.708zm2.125-.692a.5.5 0 00-.698-.716l.698.716zm.745-2.109a.5.5 0 00.69.724l-.69-.724zm2.13-.637a.5.5 0 00-.682-.73l.683.73zm.771-2.074a.5.5 0 10.675.738l-.675-.738zm2.163-.607a.5.5 0 00-.667-.745l.667.745zm.831-2.072a.5.5 0 10.659.753l-.659-.752zm2.151-.54a.5.5 0 00-.65-.76l.65.76zm.872-2.05a.5.5 0 10.642.766l-.642-.766zm2.182-.51a.5.5 0 10-.635-.774l.635.774zm.913-2.03a.5.5 0 10.626.78l-.626-.78zm2.164-.441a.5.5 0 10-.618-.786l.618.786zm.977-2.026a.5.5 0 00.61.793l-.61-.793zm2.194-.411a.5.5 0 10-.601-.8l.6.8zm.988-1.98a.5.5 0 00.592.805l-.592-.806zm2.206-.367a.5.5 0 00-.584-.813l.584.813zm1.053-1.976a.5.5 0 10.575.819l-.575-.819zm2.196-.307a.5.5 0 00-.566-.825l.566.825zm1.083-1.944a.5.5 0 10.557.83l-.557-.83zm2.227-.277a.5.5 0 10-.548-.836l.548.836zm1.121-1.916a.5.5 0 10.538.842l-.538-.842zm2.208-.212a.5.5 0 10-.529-.849l.529.849zm1.19-1.908a.5.5 0 00.519.854l-.519-.854zm2.213-.164a.5.5 0 10-.51-.86l.51.86zm1.205-1.864a.5.5 0 00.5.866l-.5-.866zm2.245-.128a.5.5 0 10-.49-.872l.49.872zm1.243-1.833a.5.5 0 00.48.878l-.48-.878zM.405 433.991c.327.063.656.125.986.185l.179-.984c-.327-.06-.652-.121-.975-.183l-.19.982zm2.98.527a96.79 96.79 0 002.013.303l.14-.99c-.67-.094-1.334-.194-1.993-.3l-.16.987zm4.016.563c.672.08 1.348.154 2.027.221l.098-.996a98.978 98.978 0 01-2.006-.218l-.119.993zm4.037.398c.673.052 1.349.098 2.027.136l.057-.998a94.024 94.024 0 01-2.006-.135l-.078.997zm4.052.23a97.2 97.2 0 002.026.051l.014-1c-.67-.01-1.338-.027-2.005-.05l-.035.999zm4.058.057a91.398 91.398 0 002.025-.038l-.03-.999c-.669.02-1.337.032-2.003.037l.008 1zm4.054-.122a85.94 85.94 0 002.023-.13l-.076-.997c-.667.051-1.333.093-2 .129l.053.998zm4.045-.309a85.86 85.86 0 002.017-.228l-.125-.992c-.663.083-1.328.158-1.992.225l.1.995zm4.027-.506a80.185 80.185 0 002.004-.331l-.176-.984c-.658.117-1.317.226-1.978.326l.15.989zm3.997-.714a74.558 74.558 0 001.983-.438l-.23-.974c-.649.154-1.3.298-1.955.433l.202.979zm3.954-.933a66.428 66.428 0 001.955-.552l-.286-.958a67.45 67.45 0 01-1.927.544l.258.966zm3.893-1.163a65.002 65.002 0 001.918-.672l-.345-.938c-.626.23-1.255.45-1.889.661l.316.949zm3.815-1.406c.628-.254 1.251-.52 1.87-.796l-.407-.913a61.19 61.19 0 01-1.84.783l.377.926zm3.714-1.656a57.046 57.046 0 001.812-.925l-.47-.882c-.59.313-1.183.616-1.781.908l.439.899zm3.588-1.914a54.09 54.09 0 001.744-1.058l-.535-.845c-.565.357-1.135.703-1.711 1.038l.502.865zm3.438-2.176c.559-.384 1.111-.78 1.657-1.187l-.598-.801c-.535.399-1.077.787-1.625 1.164l.566.824zm3.264-2.436a50.583 50.583 0 001.554-1.311l-.66-.751a51.76 51.76 0 01-1.524 1.285l.63.777zm3.065-2.693c.486-.463.965-.937 1.436-1.423l-.718-.697a48.73 48.73 0 01-1.408 1.396l.69.724zm2.827-2.918a51.5 51.5 0 001.327-1.544l-.772-.636c-.426.516-.86 1.021-1.3 1.514l.745.666zm2.585-3.133a52.5 52.5 0 001.21-1.66l-.818-.573a51.226 51.226 0 01-1.188 1.627l.796.606zm2.336-3.334c.364-.566.721-1.142 1.07-1.731l-.86-.509a53.131 53.131 0 01-1.05 1.698l.84.542zm2.084-3.518a56.2 56.2 0 00.927-1.78l-.895-.446c-.296.593-.6 1.176-.91 1.748l.879.478zm1.806-3.622a60.6 60.6 0 00.817-1.877l-.923-.384a58.62 58.62 0 01-.804 1.846l.91.415zm1.556-3.741c.24-.631.47-1.271.693-1.922l-.946-.324c-.22.64-.447 1.271-.682 1.892l.936.354zm1.328-3.87c.195-.63.382-1.269.563-1.917l-.964-.268a68.405 68.405 0 01-.554 1.889l.955.296zm1.081-3.888c.165-.662.322-1.333.471-2.014l-.977-.214a74.99 74.99 0 01-.464 1.987l.97.241zm.872-3.956c.127-.656.247-1.32.36-1.992l-.986-.166a80.2 80.2 0 01-.356 1.968l.982.19zm.678-4.032c.095-.656.183-1.32.264-1.992l-.993-.12c-.08.664-.167 1.321-.26 1.97l.99.142zm.483-3.981c.067-.67.127-1.347.18-2.032l-.996-.078a97.195 97.195 0 01-.179 2.011l.995.099zm.323-4.108c.037-.649.07-1.305.096-1.968l-1-.039a93.205 93.205 0 01-.095 1.949l.999.058zm.157-3.974c.015-.675.024-1.357.027-2.045l-1-.004a114.47 114.47 0 01-.026 2.027l1 .022zm.017-4.121c-.008-.651-.022-1.306-.04-1.968l-1 .028c.018.657.032 1.308.04 1.953l1-.013zm-.113-3.97c-.03-.673-.065-1.352-.105-2.037l-.998.059c.04.68.074 1.354.103 2.022l1-.044zm-.242-4.108c-.048-.655-.101-1.316-.159-1.981l-.996.086c.057.661.11 1.318.158 1.968l.997-.073zm-.344-3.962c-.066-.666-.138-1.336-.214-2.012l-.994.112c.076.672.147 1.338.213 1.999l.995-.099zm-.457-4.054a188.55 188.55 0 00-.268-2.041l-.99.136c.093.682.182 1.358.266 2.03l.992-.125zm-.547-3.989c-.097-.653-.198-1.312-.304-1.974l-.988.157c.105.66.206 1.314.303 1.964l.99-.147zm-.635-3.976a198.89 198.89 0 00-.357-2.028l-.984.178c.123.677.241 1.35.355 2.018l.986-.168zm-.733-4.046c-.123-.64-.25-1.283-.38-1.931l-.98.198c.13.644.255 1.284.377 1.921l.983-.188zm-.782-3.884a215.01 215.01 0 00-.426-1.978l-.977.215c.145.66.287 1.317.424 1.969l.979-.206zm-.876-3.979c-.154-.672-.312-1.347-.474-2.026l-.972.232c.16.676.318 1.349.471 2.017l.975-.223zm-.938-3.942a257.39 257.39 0 00-.483-1.922l-.969.247c.164.642.324 1.28.48 1.915l.972-.24zm-.986-3.866c-.172-.651-.346-1.306-.525-1.965l-.965.262c.178.656.352 1.308.523 1.957l.967-.254zm-1.071-3.951c-.184-.659-.371-1.321-.562-1.986l-.961.275c.19.664.377 1.323.56 1.98l.963-.269zm-1.109-3.871c-.185-.631-.374-1.265-.566-1.903l-.957.288c.19.636.379 1.268.564 1.897l.96-.282zm-1.151-3.825c-.198-.643-.4-1.29-.604-1.94l-.954.3c.204.648.405 1.293.602 1.935l.956-.295zm-1.228-3.9a264.87 264.87 0 00-.643-1.978l-.95.312c.217.661.43 1.318.641 1.973l.952-.307zm-1.261-3.843c-.209-.622-.42-1.247-.634-1.875l-.946.323c.213.626.424 1.249.631 1.869l.949-.317zm-1.284-3.766c-.22-.634-.443-1.27-.668-1.908l-.943.332c.225.638.447 1.272.666 1.903l.945-.327zm-1.353-3.833c-.232-.645-.466-1.292-.703-1.942l-.94.343c.237.648.47 1.294.702 1.937l.94-.338zm-1.41-3.862c-.226-.611-.455-1.224-.686-1.84l-.936.352c.23.614.46 1.226.685 1.836l.938-.348zm-1.39-3.696c-.236-.62-.475-1.244-.717-1.87l-.933.361c.241.624.48 1.246.717 1.866l.934-.357zm-1.452-3.755a463.27 463.27 0 00-.75-1.9l-.929.37c.252.634.502 1.266.748 1.895l.931-.365zm-1.515-3.815c-.255-.634-.513-1.271-.774-1.91l-.926.377c.26.638.518 1.274.772 1.907l.928-.374zm-1.518-3.726c-.25-.608-.503-1.217-.758-1.829l-.923.385c.255.611.507 1.219.757 1.825l.924-.381zm-1.53-3.671c-.26-.616-.522-1.235-.787-1.855l-.92.392c.264.619.526 1.237.785 1.852l.922-.389zm-1.588-3.724a579.98 579.98 0 00-.815-1.882l-.917.399c.274.629.545 1.255.814 1.879l.918-.396zm-1.644-3.777l-.42-.953-.915.404.42.951.915-.402zm-.42-.953c-.138-.311-.275-.621-.41-.931l-.916.402.41.933.915-.404zm-1.22-2.786c-.267-.617-.532-1.234-.794-1.849l-.92.393c.263.617.529 1.234.797 1.853l.917-.397zm-1.574-3.69a369.15 369.15 0 01-.766-1.834l-.924.383c.254.612.51 1.225.768 1.839l.922-.388zm-1.517-3.661c-.248-.607-.494-1.214-.737-1.819l-.928.373c.244.607.49 1.215.739 1.824l.926-.378zm-1.46-3.632c-.247-.623-.49-1.244-.732-1.865l-.932.363c.242.622.486 1.246.734 1.87l.93-.368zm-1.46-3.75a331.05 331.05 0 01-.712-1.877l-.937.352c.236.626.474 1.254.715 1.883l.934-.358zm-1.41-3.746c-.23-.622-.457-1.243-.682-1.862l-.94.341c.226.621.454 1.244.684 1.867l.938-.346zm-1.349-3.716a343.83 343.83 0 01-.651-1.846l-.944.33c.215.616.433 1.233.654 1.852l.941-.336zm-1.295-3.703c-.22-.641-.437-1.28-.651-1.918l-.948.319c.215.639.433 1.281.653 1.923l.946-.324zm-1.286-3.827a279.16 279.16 0 01-.62-1.901l-.951.307c.204.634.411 1.269.62 1.906l.95-.312zm-1.222-3.793c-.199-.629-.394-1.257-.587-1.884l-.956.295c.194.628.39 1.258.589 1.89l.954-.301zm-1.159-3.759a302.02 302.02 0 01-.558-1.875l-.96.282c.185.626.371 1.253.56 1.881l.958-.288zm-1.123-3.82a289.06 289.06 0 01-.547-1.936l-.963.269c.18.646.363 1.293.55 1.942l.96-.275zm-1.078-3.863c-.174-.64-.346-1.28-.514-1.917l-.967.255c.17.64.341 1.282.516 1.925l.965-.263zm-1.011-3.825c-.163-.635-.324-1.268-.481-1.899l-.97.242c.157.634.318 1.269.482 1.906l.968-.249zm-.952-3.815a264.7 264.7 0 01-.468-1.966l-.973.228c.153.656.31 1.314.47 1.973l.971-.235zm-.917-3.922c-.148-.65-.292-1.299-.433-1.946l-.977.213c.142.65.286 1.301.434 1.954l.976-.221zm-.848-3.882a254.3 254.3 0 01-.397-1.926l-.98.198c.13.643.263 1.288.399 1.934l.978-.206zm-.777-3.842c-.129-.66-.254-1.317-.376-1.973l-.983.183c.123.658.248 1.318.377 1.98l.982-.19zm-.736-3.953c-.117-.658-.231-1.314-.342-1.969l-.986.167c.111.657.226 1.316.343 1.977l.985-.175zm-.666-3.927c-.104-.651-.206-1.3-.305-1.947l-.989.151c.1.65.202 1.301.307 1.955l.987-.159zm-.593-3.884a236.6 236.6 0 01-.276-1.972l-.99.134c.089.659.181 1.319.277 1.981l.99-.143zm-.537-3.968c-.085-.664-.166-1.325-.243-1.985l-.993.117c.078.663.159 1.327.244 1.993l.992-.125zm-.467-3.958c-.072-.656-.14-1.31-.205-1.962l-.995.1c.065.655.134 1.312.206 1.97l.994-.108zm-.392-3.912c-.06-.663-.117-1.325-.171-1.984l-.997.081c.054.663.112 1.328.172 1.994l.996-.091zm-.326-3.989c-.049-.667-.094-1.331-.136-1.993l-.998.063c.042.665.087 1.333.136 2.002l.997-.072zm-.252-3.973c-.035-.658-.067-1.314-.097-1.968l-.999.044c.03.657.062 1.316.098 1.978l.998-.054zm-.174-3.923c-.024-.672-.044-1.34-.06-2.007l-1 .025c.017.67.037 1.342.06 2.017l1-.035zm-.101-4.012c-.01-.666-.017-1.33-.02-1.992l-1 .005c.003.665.01 1.333.02 2.002l1-.015zm-.021-3.97c.003-.658.01-1.313.019-1.966l-1-.014c-.01.656-.016 1.314-.02 1.975l1 .005zm.057-3.94c.017-.673.037-1.343.06-2.01l-.999-.035a190.52 190.52 0 00-.06 2.02l1 .025zm.141-4.006c.03-.662.064-1.323.1-1.981l-.997-.056c-.038.662-.071 1.325-.102 1.992l1 .045zm.222-3.948c.043-.654.09-1.305.14-1.954l-.997-.077a190.9 190.9 0 00-.141 1.964l.998.067zm.306-3.959c.059-.666.12-1.33.186-1.991l-.995-.099c-.066.665-.128 1.332-.187 2.002l.996.088zm.393-3.967c.072-.656.148-1.31.227-1.961l-.993-.121a177.2 177.2 0 00-.228 1.972l.994.11zm.474-3.907c.088-.664.18-1.325.274-1.984l-.99-.142a179.62 179.62 0 00-.275 1.994l.99.132zm.57-3.962c.102-.657.207-1.311.316-1.962l-.986-.165c-.11.655-.216 1.313-.318 1.973l.988.154zm.653-3.909c.115-.646.234-1.289.356-1.93l-.982-.187c-.123.644-.242 1.292-.359 1.941l.985.176zm.742-3.894c.132-.655.268-1.307.408-1.957l-.978-.209c-.14.653-.277 1.309-.41 1.967l.98.199zm.836-3.896c.146-.644.295-1.285.448-1.923l-.973-.233a182.64 182.64 0 00-.45 1.935l.975.221zm.916-3.83c.163-.651.33-1.299.5-1.943l-.966-.256c-.172.649-.34 1.301-.504 1.955l.97.244zm1.022-3.869c.177-.639.357-1.275.54-1.909l-.96-.278a166.23 166.23 0 00-.544 1.92l.964.267zm1.1-3.8c.192-.632.386-1.262.584-1.889l-.954-.301c-.199.631-.394 1.264-.587 1.9l.957.29zm1.198-3.794c.208-.632.42-1.261.634-1.887l-.946-.324c-.216.63-.428 1.263-.638 1.899l.95.312zm1.286-3.756c.221-.62.445-1.237.672-1.852l-.938-.346c-.229.618-.454 1.239-.676 1.862l.942.336zm1.373-3.717c.24-.623.481-1.243.726-1.86l-.93-.368c-.246.62-.49 1.244-.73 1.87l.934.358zm1.47-3.7c.252-.61.506-1.218.763-1.822l-.92-.392c-.26.608-.515 1.22-.767 1.833l.924.38zm1.547-3.635c.27-.612.541-1.221.816-1.826l-.91-.414c-.277.609-.55 1.221-.821 1.837l.915.403zm1.65-3.633c.282-.6.566-1.195.852-1.787l-.9-.436c-.288.596-.574 1.195-.856 1.798l.905.425zm1.721-3.555c.298-.598.599-1.191.902-1.782l-.89-.457c-.304.594-.607 1.192-.907 1.792l.895.447zm1.824-3.55c.31-.585.623-1.167.939-1.746l-.878-.479a167.39 167.39 0 00-.944 1.758l.883.468zm1.893-3.473c.325-.58.652-1.156.982-1.728l-.866-.5a167.25 167.25 0 00-.988 1.739l.872.489zm1.99-3.451c.338-.571.678-1.139 1.022-1.703l-.855-.52a180.4 180.4 0 00-1.028 1.713l.86.51zm2.059-3.384c.351-.562.704-1.12 1.06-1.674l-.841-.54a166.22 166.22 0 00-1.067 1.684l.848.53zm2.149-3.349c.365-.555.732-1.106 1.102-1.653l-.828-.56c-.372.55-.742 1.105-1.11 1.663l.836.55zm2.219-3.285c.376-.544.755-1.084 1.136-1.62l-.816-.58c-.383.54-.764 1.084-1.142 1.63l.822.57zm2.302-3.243c.39-.537.784-1.07 1.179-1.6l-.802-.598c-.397.532-.792 1.07-1.186 1.61l.809.588zm2.37-3.18c.401-.525.805-1.047 1.21-1.565l-.788-.616c-.407.521-.813 1.046-1.216 1.575l.794.607zm2.45-3.132c.415-.519.832-1.034 1.251-1.545l-.773-.634c-.421.514-.841 1.032-1.259 1.554l.78.625zm2.513-3.067c.425-.508.852-1.01 1.28-1.51l-.758-.652c-.431.503-.86 1.01-1.288 1.52l.766.642zm2.59-3.02c.439-.5.879-.995 1.32-1.486l-.744-.668c-.444.494-.886.992-1.327 1.494l.752.66zm2.648-2.949c.449-.489.899-.974 1.35-1.455l-.729-.684c-.454.483-.907.971-1.358 1.463l.737.676zm2.725-2.904c.46-.479.92-.954 1.382-1.424l-.713-.7c-.465.473-.928.95-1.39 1.432l.721.692zm2.771-2.825c.472-.47.945-.937 1.42-1.4l-.699-.716c-.477.465-.952.935-1.427 1.408l.706.708zm2.855-2.785c.479-.458.959-.911 1.44-1.36l-.683-.731a182.8 182.8 0 00-1.448 1.367l.69.724zm2.885-2.697c.496-.453.991-.901 1.488-1.345l-.667-.745c-.5.446-.998.897-1.496 1.352l.675.738zm2.978-2.664c.497-.435.994-.866 1.492-1.293l-.65-.76c-.501.43-1.001.863-1.501 1.3l.659.753zm3.006-2.577c.513-.43 1.027-.855 1.54-1.276l-.635-.774c-.515.424-1.031.852-1.547 1.284l.642.766zm3.079-2.526c.513-.411 1.025-.818 1.538-1.221l-.618-.786c-.515.404-1.03.814-1.546 1.228l.626.78zm3.124-2.454a187.02 187.02 0 011.585-1.204l-.601-.8c-.53.4-1.061.803-1.593 1.211l.61.793zm3.165-2.379a171.66 171.66 0 011.614-1.172l-.584-.813c-.54.388-1.08.781-1.622 1.18l.592.805zm3.242-2.33c.541-.38 1.082-.755 1.621-1.125l-.566-.825c-.542.373-1.086.75-1.63 1.132l.575.819zm3.261-2.238c.558-.375 1.115-.744 1.67-1.107l-.548-.837c-.558.365-1.118.737-1.679 1.113l.557.83zm3.329-2.181c.559-.358 1.116-.71 1.67-1.055l-.529-.849c-.558.348-1.118.702-1.679 1.061l.538.842zm3.379-2.109c.568-.345 1.132-.684 1.694-1.018l-.51-.86c-.565.336-1.133.677-1.703 1.024l.519.854zm3.399-2.016c.585-.338 1.167-.67 1.745-.994l-.49-.872c-.582.327-1.167.66-1.755 1l.5.866zm3.468-1.95c.285-.155.569-.31.852-.462l-.474-.88c-.285.153-.571.309-.858.465l.48.878z" fill="#C8BEB2"/></svg>