<svg width="187" height="32" fill="none" xmlns="http://www.w3.org/2000/svg"><path stroke="#434343" stroke-opacity=".9" stroke-width="2" stroke-linecap="square" d="M1 1v30"/><path d="M16.484 25.252l-6.276-16.5c-.128-.36-.276-.636-.444-.828-.16-.2-.392-.344-.696-.432-.304-.088-.732-.152-1.284-.192v-.576h7.98V7.3c-.848.048-1.46.112-1.836.192-.368.072-.572.208-.612.408-.032.192.024.5.168.924l4.032 11.604.144-.012 3.684-10.524c.208-.576.284-1.032.228-1.368-.056-.336-.28-.596-.672-.78-.384-.184-.972-.332-1.764-.444v-.576h6.768V7.3c-.824.12-1.448.276-1.872.468-.416.192-.728.46-.936.804-.208.336-.412.792-.612 1.368l-5.508 15.312h-.492zM22.917 25v-.576c.824-.136 1.444-.3 1.86-.492.416-.2.728-.468.936-.804.208-.344.412-.796.612-1.356L30.92 9.064l-.672-1.524 2.496-1.296L39.08 22.96c.136.368.284.648.444.84.168.192.404.332.708.42.304.088.732.156 1.284.204V25h-7.848v-.576c.776-.048 1.356-.104 1.74-.168.384-.072.604-.228.66-.468.056-.248-.016-.652-.216-1.212l-4.32-11.844h-.072l-4.068 11.316c-.176.488-.224.888-.144 1.2.08.304.316.548.708.732.392.176.964.324 1.716.444V25h-6.756zm5.376-6.528v-1.008h6.576v1.008h-6.576zM42.386 25v-.576l2.04-.48V7.768l-2.04-.468v-.576h7.356c1.24 0 2.336.2 3.288.6.96.392 1.708.976 2.244 1.752.544.768.816 1.716.816 2.844 0 1.176-.344 2.144-1.032 2.904-.68.76-1.64 1.292-2.88 1.596l5.004 7.524 2.628.48V25h-5.328l-5.256-8.268h-2.1v7.212l2.7.48V25h-7.44zm4.74-9.24h1.392c.976 0 1.744-.116 2.304-.348.568-.232 1.028-.544 1.38-.936.352-.392.6-.828.744-1.308.152-.488.228-.984.228-1.488 0-.952-.192-1.736-.576-2.352a3.26 3.26 0 00-1.596-1.332 3.452 3.452 0 00-.9-.228 8.78 8.78 0 00-1.236-.072h-1.74v8.064zm19.233 9.492l-6.276-16.5c-.128-.36-.276-.636-.444-.828-.16-.2-.392-.344-.696-.432-.304-.088-.732-.152-1.284-.192v-.576h7.98V7.3c-.848.048-1.46.112-1.836.192-.368.072-.572.208-.612.408-.032.192.024.5.168.924l4.032 11.604.144-.012 3.684-10.524c.208-.576.284-1.032.228-1.368-.056-.336-.28-.596-.672-.78-.384-.184-.972-.332-1.764-.444v-.576h6.768V7.3c-.824.12-1.448.276-1.872.468-.416.192-.728.46-.936.804-.208.336-.412.792-.612 1.368l-5.508 15.312h-.492zM72.792 25v-.576c.824-.136 1.444-.3 1.86-.492.416-.2.728-.468.936-.804.208-.344.412-.796.612-1.356l4.596-12.708-.672-1.524 2.496-1.296 6.336 16.716c.136.368.284.648.444.84.168.192.404.332.708.42.304.088.732.156 1.284.204V25h-7.848v-.576c.776-.048 1.356-.104 1.74-.168.384-.072.604-.228.66-.468.056-.248-.016-.652-.216-1.212l-4.32-11.844h-.072l-4.068 11.316c-.176.488-.224.888-.144 1.2.08.304.316.548.708.732.392.176.964.324 1.716.444V25h-6.756zm5.376-6.528v-1.008h6.576v1.008h-6.576zM92.26 25v-.576l2.04-.48V7.768L92.26 7.3v-.576h7.356c1.24 0 2.336.2 3.288.6.96.392 1.708.976 2.244 1.752.544.768.816 1.716.816 2.844 0 1.176-.344 2.144-1.032 2.904-.68.76-1.64 1.292-2.88 1.596l5.004 7.524 2.628.48V25h-5.328L99.1 16.732H97v7.212l2.7.48V25h-7.44zM97 15.76h1.392c.976 0 1.744-.116 2.304-.348.568-.232 1.028-.544 1.38-.936.352-.392.6-.828.744-1.308.152-.488.228-.984.228-1.488 0-.952-.192-1.736-.576-2.352a3.26 3.26 0 00-1.596-1.332 3.451 3.451 0 00-.9-.228 8.78 8.78 0 00-1.236-.072H97v8.064zM108.135 25v-.576c.825-.136 1.445-.3 1.861-.492.416-.2.728-.468.936-.804.208-.344.412-.796.612-1.356l4.596-12.708-.673-1.524 2.497-1.296L124.3 22.96c.136.368.284.648.444.84.168.192.404.332.708.42.304.088.732.156 1.284.204V25h-7.848v-.576c.776-.048 1.356-.104 1.74-.168.384-.072.604-.228.66-.468.056-.248-.016-.652-.216-1.212l-4.32-11.844h-.072l-4.068 11.316c-.176.488-.224.888-.144 1.2.08.304.316.548.708.732.392.176.964.324 1.716.444V25h-6.757zm5.377-6.528v-1.008h6.576v1.008h-6.576zm14.294 1.572v-2.052h7.572v2.052h-7.572zm16.488 5.172a6.492 6.492 0 01-1.92-.288c-.616-.192-1.268-.492-1.956-.9l-.948.972h-.492l-.444-6.084.648-.132c.48 1.88 1.112 3.244 1.896 4.092.792.848 1.836 1.272 3.132 1.272 1.088 0 1.948-.26 2.58-.78.632-.528.948-1.24.948-2.136a2.94 2.94 0 00-.66-1.884c-.432-.56-1.144-1.12-2.136-1.68l-1.836-.972c-1.496-.808-2.568-1.612-3.216-2.412-.648-.8-.972-1.732-.972-2.796 0-.96.236-1.816.708-2.568a4.958 4.958 0 011.932-1.788c.824-.44 1.748-.66 2.772-.66 1.4 0 2.62.492 3.66 1.476l.732-1.248h.516l.216 5.244h-.684c-.376-1.496-.92-2.6-1.632-3.312-.704-.72-1.604-1.08-2.7-1.08-.888 0-1.592.236-2.112.708-.512.472-.768 1.12-.768 1.944 0 .744.244 1.408.732 1.992.496.584 1.328 1.184 2.496 1.8l1.788.96c1.224.648 2.108 1.368 2.652 2.16.552.792.828 1.7.828 2.724 0 1.016-.256 1.932-.768 2.748a5.426 5.426 0 01-2.064 1.92c-.864.472-1.84.708-2.928.708zm8.272-.216v-.576l2.039-.48V7.756l-2.039-.456v-.576h6.996V7.3l-2.256.456v16.248h6.732c.432-.728.804-1.46 1.116-2.196.312-.736.612-1.56.9-2.472h.708l-.9 5.664h-13.296zm15.654 0v-.576l2.136-.48V7.756L168.22 7.3v-.576h6.936V7.3l-2.1.456v8.316l6.576-7.344a1.41 1.41 0 00.288-.384.773.773 0 00.096-.336c0-.208-.16-.368-.48-.48-.312-.112-.812-.188-1.5-.228v-.576h6.348V7.3c-.728.12-1.3.24-1.716.36-.408.112-.74.252-.996.42-.256.168-.512.4-.768.696l-4.632 5.256 7.572 9.912 2.568.48V25h-5.316l-6.636-8.916-1.404 1.596v6.264l2.1.48V25h-6.936z" fill="#434343" fill-opacity=".9"/></svg>