<svg width="157" height="28" fill="none" xmlns="http://www.w3.org/2000/svg"><path stroke="#434343" stroke-opacity=".9" stroke-width="2" stroke-linecap="square" d="M1 1v26"/><path d="M15.07 21.71L9.84 7.96c-.107-.3-.23-.53-.37-.69-.133-.167-.327-.287-.58-.36-.253-.073-.61-.127-1.07-.16v-.48h6.65v.48c-.707.04-1.217.093-1.53.16-.307.06-.477.173-.51.34-.027.16.02.417.14.77l3.36 9.67.12-.01 3.07-8.77c.173-.48.237-.86.19-1.14-.047-.28-.233-.497-.56-.65-.32-.153-.81-.277-1.47-.37v-.48h5.64v.48c-.687.1-1.207.23-1.56.39-.347.16-.607.383-.78.67-.173.28-.343.66-.51 1.14l-4.59 12.76h-.41zm5.36-.21v-.48c.687-.113 1.204-.25 1.55-.41.347-.167.607-.39.78-.67a6.34 6.34 0 00.51-1.13L27.1 8.22l-.56-1.27 2.08-1.08L33.9 19.8c.114.307.237.54.37.7.14.16.337.277.59.35.254.073.61.13 1.07.17v.48h-6.54v-.48c.647-.04 1.13-.087 1.45-.14.32-.06.504-.19.55-.39.047-.207-.013-.543-.18-1.01l-3.6-9.87h-.06l-3.39 9.43c-.146.407-.186.74-.12 1 .067.253.264.457.59.61.327.147.804.27 1.43.37v.48h-5.63zm4.48-5.44v-.84h5.48v.84h-5.48zm11.745 5.44v-.48l1.7-.4V7.14l-1.7-.39v-.48h6.13c1.033 0 1.947.167 2.74.5.8.327 1.423.813 1.87 1.46.453.64.68 1.43.68 2.37 0 .98-.287 1.787-.86 2.42-.567.633-1.367 1.077-2.4 1.33l4.17 6.27 2.19.4v.48h-4.44l-4.38-6.89h-1.75v6.01l2.25.4v.48h-6.2zm3.95-7.7h1.16c.813 0 1.453-.097 1.92-.29.473-.193.856-.453 1.15-.78.293-.327.5-.69.62-1.09.127-.407.19-.82.19-1.24 0-.793-.16-1.447-.48-1.96a2.716 2.716 0 00-1.33-1.11 2.875 2.875 0 00-.75-.19 7.316 7.316 0 00-1.03-.06h-1.45v6.72zm16.028 7.91l-5.23-13.75c-.107-.3-.23-.53-.37-.69a1.113 1.113 0 00-.58-.36c-.254-.073-.61-.127-1.07-.16v-.48h6.65v.48c-.707.04-1.217.093-1.53.16-.307.06-.477.173-.51.34-.027.16.02.417.14.77l3.36 9.67.12-.01 3.07-8.77c.173-.48.236-.86.19-1.14-.047-.28-.234-.497-.56-.65-.32-.153-.81-.277-1.47-.37v-.48h5.64v.48c-.687.1-1.207.23-1.56.39-.347.16-.607.383-.78.67-.174.28-.344.66-.51 1.14l-4.59 12.76h-.41zm5.36-.21v-.48c.687-.113 1.203-.25 1.55-.41.347-.167.607-.39.78-.67a6.34 6.34 0 00.51-1.13l3.83-10.59-.56-1.27 2.08-1.08 5.28 13.93c.114.307.237.54.37.7.14.16.337.277.59.35.254.073.61.13 1.07.17v.48h-6.54v-.48c.647-.04 1.13-.087 1.45-.14.32-.06.503-.19.55-.39.047-.207-.013-.543-.18-1.01l-3.6-9.87h-.06l-3.39 9.43c-.147.407-.186.74-.12 1 .067.253.264.457.59.61.327.147.803.27 1.43.37v.48h-5.63zm4.48-5.44v-.84h5.48v.84h-5.48zm11.744 5.44v-.48l1.7-.4V7.14l-1.7-.39v-.48h6.13c1.034 0 1.947.167 2.74.5.8.327 1.424.813 1.87 1.46.454.64.68 1.43.68 2.37 0 .98-.286 1.787-.86 2.42-.566.633-1.366 1.077-2.4 1.33l4.17 6.27 2.19.4v.48h-4.44l-4.38-6.89h-1.75v6.01l2.25.4v.48h-6.2zm3.95-7.7h1.16c.814 0 1.454-.097 1.92-.29.474-.193.857-.453 1.15-.78.294-.327.5-.69.62-1.09.127-.407.19-.82.19-1.24 0-.793-.16-1.447-.48-1.96a2.716 2.716 0 00-1.33-1.11 2.875 2.875 0 00-.75-.19 7.316 7.316 0 00-1.03-.06h-1.45v6.72zm9.28 7.7v-.48c.686-.113 1.203-.25 1.55-.41.346-.167.606-.39.78-.67.173-.287.343-.663.51-1.13l3.83-10.59-.56-1.27 2.08-1.08 5.279 13.93c.114.307.237.54.37.7.14.16.337.277.59.35.254.073.61.13 1.07.17v.48h-6.54v-.48c.647-.04 1.13-.087 1.45-.14.32-.06.504-.19.55-.39.047-.207-.013-.543-.18-1.01l-3.6-9.87h-.06l-3.39 9.43c-.146.407-.186.74-.12 1 .067.253.264.457.59.61.327.147.804.27 1.43.37v.48h-5.63zm4.48-5.44v-.84h5.479v.84h-5.48zm11.911 1.31v-1.71h6.31v1.71h-6.31zm13.741 4.31c-.547 0-1.08-.08-1.6-.24a7.732 7.732 0 01-1.63-.75l-.79.81h-.41l-.37-5.07.54-.11c.4 1.567.926 2.703 1.58 3.41.66.707 1.53 1.06 2.61 1.06.906 0 1.623-.217 2.15-.65.526-.44.79-1.033.79-1.78 0-.587-.184-1.11-.55-1.57-.36-.467-.954-.933-1.78-1.4l-1.53-.81c-1.247-.673-2.14-1.343-2.68-2.01-.54-.667-.81-1.443-.81-2.33 0-.8.196-1.513.59-2.14a4.13 4.13 0 011.61-1.49c.686-.367 1.456-.55 2.31-.55 1.166 0 2.183.41 3.05 1.23l.61-1.04h.43l.18 4.37h-.57c-.314-1.247-.767-2.167-1.36-2.76-.587-.6-1.337-.9-2.25-.9-.74 0-1.327.197-1.76.59-.427.393-.64.933-.64 1.62 0 .62.203 1.173.61 1.66.413.487 1.106.987 2.08 1.5l1.49.8c1.02.54 1.756 1.14 2.21 1.8.46.66.69 1.417.69 2.27 0 .847-.214 1.61-.64 2.29a4.526 4.526 0 01-1.72 1.6c-.72.393-1.534.59-2.44.59zm6.892-.18v-.48l1.7-.4V7.13l-1.7-.38v-.48h5.83v.48l-1.88.38v13.54h5.61c.36-.607.67-1.217.93-1.83s.51-1.3.75-2.06h.59l-.75 4.72h-11.08zm13.046 0v-.48l1.78-.4V7.13l-1.78-.38v-.48h5.78v.48l-1.75.38v6.93l5.48-6.12c.113-.113.193-.22.24-.32a.65.65 0 00.08-.28c0-.173-.134-.307-.4-.4-.26-.093-.677-.157-1.25-.19v-.48h5.29v.48c-.607.1-1.084.2-1.43.3-.34.093-.617.21-.83.35-.214.14-.427.333-.64.58l-3.86 4.38 6.31 8.26 2.14.4v.48h-4.43l-5.53-7.43-1.17 1.33v5.22l1.75.4v.48h-5.78z" fill="#434343" fill-opacity=".9"/></svg>