<svg width="146" height="32" fill="none" xmlns="http://www.w3.org/2000/svg"><path d="M.76 28.646V14.681c-.02-.795.273-2.384 1.618-2.384H9.61m17.32-8.943v13.965c.021.795-.273 2.384-1.617 2.384H18.08" stroke="#BFCD15" stroke-width="1.4" stroke-linecap="round"/><ellipse cx=".759" cy="31.162" rx=".759" ry=".838" fill="#BFCD15"/><ellipse cx="26.931" cy=".839" rx=".759" ry=".838" transform="rotate(-180 26.93 .839)" fill="#BFCD15"/><path d="M4.236 19.563h6.65l5.698-7.127h6.997" stroke="#BFCD15" stroke-width="1.4" stroke-linecap="round" stroke-linejoin="round"/><path d="M37.994 22.52c-.245 0-.434-.073-.567-.219-.134-.158-.2-.376-.2-.656V10.406c0-.28.066-.492.2-.637.145-.146.34-.22.584-.22h3.972c1.269 0 2.242.341 2.921 1.021.69.68 1.035 1.633 1.035 2.86 0 1.239-.345 2.198-1.035 2.878-.679.68-1.652 1.02-2.92 1.02h-3.205v4.317c0 .28-.067.498-.2.656-.123.146-.318.219-.585.219zm.785-6.558h3.004c.868 0 1.519-.213 1.953-.638.445-.437.668-1.068.668-1.894 0-.826-.223-1.445-.668-1.858-.434-.425-1.085-.638-1.953-.638H38.78v5.028zm13.464 6.558c-.233 0-.422-.055-.567-.164-.145-.122-.267-.304-.367-.547l-4.523-11.275c-.09-.231-.117-.425-.084-.583a.643.643 0 01.25-.383.773.773 0 01.468-.146c.233 0 .406.055.517.164.123.11.228.274.317.492L52.56 20.99h-.584l4.29-10.912c.089-.218.195-.382.317-.492.122-.109.295-.164.517-.164.178 0 .323.049.434.146.123.097.195.23.217.4.034.159.011.347-.066.566l-4.54 11.275c-.09.243-.206.425-.35.547-.134.109-.318.164-.552.164zm7.984-.128c-.245 0-.44-.079-.584-.237-.134-.158-.2-.37-.2-.637V10.333c0-.28.066-.492.2-.637.133-.146.323-.219.567-.219.256 0 .451.073.585.219.133.145.2.358.2.637v10.602h5.307c.234 0 .407.06.518.182.122.121.184.298.184.528 0 .243-.062.431-.184.565-.111.121-.284.182-.517.182h-6.076zm9.089.073a.932.932 0 01-.717-.31c-.19-.206-.284-.467-.284-.783s.094-.57.284-.765a.96.96 0 01.717-.291c.312 0 .551.097.718.291.178.194.267.45.267.765 0 .316-.089.577-.267.783-.167.207-.406.31-.718.31zm11.569.091c-.523 0-1.03-.049-1.519-.146a6.39 6.39 0 01-1.385-.4 5.155 5.155 0 01-1.168-.674.971.971 0 01-.317-.401.933.933 0 01-.05-.455.926.926 0 01.183-.401c.1-.11.217-.176.35-.2.134-.025.279.024.435.145.511.377 1.046.65 1.602.82a6.49 6.49 0 001.87.255c.978 0 1.696-.195 2.152-.583.468-.389.701-.899.701-1.53 0-.522-.167-.93-.5-1.22-.334-.304-.896-.541-1.686-.711l-1.77-.4c-1.045-.244-1.83-.645-2.353-1.203-.512-.559-.768-1.306-.768-2.24 0-.571.106-1.088.318-1.549a3.49 3.49 0 01.9-1.22c.39-.34.847-.602 1.37-.784a5.453 5.453 0 011.769-.273c.69 0 1.335.103 1.936.31.612.206 1.163.51 1.652.91a.78.78 0 01.267.401c.045.146.05.292.017.437a.623.623 0 01-.184.365.515.515 0 01-.35.164c-.134.012-.284-.043-.45-.164a4.433 4.433 0 00-1.37-.729 4.772 4.772 0 00-1.535-.237c-.567 0-1.063.097-1.485.292a2.321 2.321 0 00-.968.82c-.223.34-.334.74-.334 1.202 0 .558.156.995.467 1.311.312.316.835.559 1.569.729l1.752.382c1.113.255 1.937.65 2.47 1.184.546.523.819 1.227.819 2.113 0 .56-.106 1.063-.318 1.512-.2.45-.49.838-.868 1.166-.378.316-.84.565-1.385.747a6.156 6.156 0 01-1.836.255zm9.717 0c-.801 0-1.497-.188-2.087-.565-.59-.376-1.045-.91-1.368-1.603-.323-.692-.484-1.505-.484-2.44 0-.705.089-1.336.267-1.895.19-.57.456-1.057.801-1.457a3.372 3.372 0 011.235-.911 3.968 3.968 0 011.636-.328c.801 0 1.496.188 2.086.565.59.376 1.046.91 1.369 1.603.322.68.484 1.487.484 2.423a6.06 6.06 0 01-.284 1.912 4.05 4.05 0 01-.784 1.457 3.55 3.55 0 01-1.252.93 4.06 4.06 0 01-1.62.31zm0-1.311c.49 0 .912-.128 1.268-.383.367-.255.646-.625.835-1.111.2-.486.3-1.087.3-1.803 0-1.07-.217-1.883-.65-2.441-.435-.56-1.019-.838-1.753-.838a2.17 2.17 0 00-1.269.382c-.356.243-.634.607-.834 1.093-.2.486-.3 1.087-.3 1.804 0 1.068.216 1.888.65 2.459.445.558 1.03.838 1.753.838zm8.438 1.311c-.834 0-1.469-.267-1.903-.801-.434-.547-.65-1.33-.65-2.35V10.26c0-.279.066-.485.2-.619.133-.146.317-.219.55-.219.245 0 .434.073.568.219.133.134.2.34.2.62v9.016c0 .632.117 1.105.35 1.421.246.304.59.456 1.036.456h.267l.233-.037c.123-.012.212.024.267.11.056.084.084.254.084.51 0 .23-.05.412-.15.546-.089.121-.24.2-.451.237-.1.012-.2.018-.3.018a2.5 2.5 0 01-.3.018zm5.371 0c-.657 0-1.207-.134-1.653-.4-.433-.268-.756-.662-.968-1.185-.211-.522-.317-1.178-.317-1.967v-4.773c0-.279.061-.485.184-.619.133-.146.323-.219.567-.219.245 0 .434.073.568.22.133.133.2.34.2.618v4.773c0 .753.139 1.312.417 1.676.279.352.718.528 1.319.528.668 0 1.207-.243 1.619-.728.423-.486.634-1.13.634-1.931V14.23c0-.279.061-.485.184-.619.133-.146.322-.219.567-.219.245 0 .434.073.568.22.133.133.2.34.2.618v7.432c0 .571-.245.857-.734.857-.245 0-.434-.073-.568-.219-.122-.146-.183-.358-.183-.637v-1.585l.217.31c-.223.704-.585 1.244-1.085 1.62-.49.365-1.069.547-1.736.547zm9.905 0c-.657 0-1.208-.127-1.653-.382a2.421 2.421 0 01-.985-1.112c-.211-.485-.317-1.08-.317-1.785v-4.48h-1.068c-.2 0-.356-.056-.467-.165a.67.67 0 01-.167-.473c0-.207.055-.365.167-.474.111-.11.267-.164.467-.164h1.068v-1.986c0-.279.067-.485.201-.619.133-.146.322-.219.567-.219.245 0 .428.073.551.22.133.133.2.34.2.619v1.985h2.02c.211 0 .372.055.484.164.111.11.167.267.167.474a.675.675 0 01-.167.473c-.112.11-.273.164-.484.164h-2.02v4.335c0 .668.128 1.172.384 1.512.256.34.679.51 1.269.51.211 0 .389-.018.534-.054.144-.049.272-.073.383-.073a.262.262 0 01.251.11c.078.084.117.242.117.473 0 .17-.028.328-.084.473a.418.418 0 01-.284.274 3.04 3.04 0 01-.534.127 2.84 2.84 0 01-.6.073zm3.491-.073a.684.684 0 01-.55-.236c-.134-.158-.201-.377-.201-.656v-7.269c0-.29.067-.51.201-.655.133-.158.317-.237.55-.237.245 0 .434.079.568.237.133.146.2.364.2.655v7.269c0 .279-.067.498-.2.655-.123.158-.312.237-.568.237zm0-11.02c-.3 0-.539-.085-.717-.255-.167-.183-.251-.42-.251-.71 0-.317.084-.553.251-.711.178-.17.417-.255.717-.255.323 0 .562.085.718.255.167.158.25.394.25.71 0 .292-.083.528-.25.71-.156.17-.395.256-.718.256zm6.665 11.093c-.801 0-1.497-.188-2.086-.565-.59-.376-1.046-.91-1.369-1.603-.323-.692-.484-1.505-.484-2.44 0-.705.089-1.336.267-1.895.189-.57.456-1.057.801-1.457a3.38 3.38 0 011.235-.911 3.97 3.97 0 011.636-.328c.801 0 1.497.188 2.086.565.59.376 1.046.91 1.369 1.603.323.68.484 1.487.484 2.423a6.06 6.06 0 01-.284 1.912 4.049 4.049 0 01-.784 1.457c-.345.401-.762.71-1.252.93a4.054 4.054 0 01-1.619.31zm0-1.311c.49 0 .912-.128 1.268-.383.368-.255.646-.625.835-1.111.2-.486.3-1.087.3-1.803 0-1.07-.217-1.883-.65-2.441-.434-.56-1.019-.838-1.753-.838-.478 0-.901.127-1.268.382-.357.243-.635.607-.835 1.093-.2.486-.3 1.087-.3 1.804 0 1.068.217 1.888.65 2.459.446.558 1.03.838 1.753.838zm6.636 1.275c-.234 0-.418-.073-.551-.219-.134-.146-.2-.358-.2-.637V14.23c0-.279.066-.485.2-.619.133-.146.317-.219.551-.219.233 0 .411.073.534.22.133.133.2.34.2.618v1.494l-.184-.273c.234-.692.612-1.214 1.135-1.567a3.235 3.235 0 011.82-.528c.656 0 1.196.128 1.619.383.423.255.74.643.951 1.165.211.523.317 1.185.317 1.986v4.773c0 .279-.067.491-.2.637-.123.146-.306.219-.551.219-.245 0-.434-.073-.567-.219-.134-.146-.201-.358-.201-.637v-4.682c0-.79-.139-1.366-.417-1.73-.278-.365-.723-.547-1.335-.547-.712 0-1.285.243-1.719.729-.423.473-.635 1.117-.635 1.93v4.3c0 .57-.255.856-.767.856zm11.604.036c-.501 0-1.007-.06-1.519-.182a4.393 4.393 0 01-1.418-.674.764.764 0 01-.268-.31.945.945 0 01-.05-.382.743.743 0 01.151-.346.412.412 0 01.283-.164.516.516 0 01.384.09c.434.268.851.456 1.252.566.412.109.818.163 1.218.163.612 0 1.074-.121 1.386-.364.311-.243.467-.565.467-.965 0-.34-.106-.601-.317-.784-.2-.194-.517-.34-.951-.437l-1.553-.346c-.689-.17-1.212-.45-1.569-.838-.344-.4-.517-.91-.517-1.53 0-.546.134-1.02.401-1.42a2.659 2.659 0 011.151-.948c.49-.219 1.052-.328 1.686-.328.49 0 .951.073 1.385.219.445.133.846.34 1.202.619a.536.536 0 01.25.328.63.63 0 01.017.382.607.607 0 01-.15.31.537.537 0 01-.301.164.665.665 0 01-.4-.11 3.037 3.037 0 00-1.002-.51 3.195 3.195 0 00-1.001-.163c-.601 0-1.057.127-1.369.382-.3.255-.45.59-.45 1.002 0 .316.089.577.267.783.189.207.484.359.884.456l1.553.346c.723.17 1.268.443 1.635.82.368.364.551.862.551 1.493 0 .826-.3 1.482-.901 1.968-.59.473-1.386.71-2.387.71z" fill="#434343"/></svg>