<svg width="26" height="26" fill="none" xmlns="http://www.w3.org/2000/svg"><path d="M13 .5C6.1.5.5 6.1.5 13S6.1 25.5 13 25.5 25.5 19.9 25.5 13 19.9.5 13 .5zM18.8 9c-.188 1.975-1 6.775-1.413 8.988-.175.937-.524 1.25-.85 1.287-.724.063-1.274-.475-1.974-.938-1.1-.724-1.726-1.174-2.788-1.875-1.238-.812-.438-1.262.275-1.987.188-.188 3.387-3.1 3.45-3.362a.25.25 0 00-.063-.226c-.074-.062-.175-.037-.262-.024-.113.024-1.863 1.187-5.275 3.487-.5.338-.95.513-1.35.5-.45-.012-1.3-.25-1.938-.463-.787-.25-1.4-.387-1.35-.825.026-.224.338-.45.926-.687 3.65-1.588 6.074-2.637 7.287-3.137 3.475-1.45 4.188-1.7 4.662-1.7.1 0 .338.024.488.15.125.1.163.237.175.337-.012.075.012.3 0 .475z" fill="#646464"/></svg>